<svg width="1411" height="200" viewBox="0 0 1411 200" fill="none" xmlns="http://www.w3.org/2000/svg">
<g opacity="0.9">
<path d="M20.5 0L80.5 36L100.5 100H50.5L20.5 0Z" fill="#F5F5F5"/>
<path d="M80.5 200L20.5 164L0.5 100H50.5L80.5 200Z" fill="#F5F5F5"/>
</g>
<path opacity="0.9" d="M219.5 135H202.4L173.8 91.7V135H156.7V64.8H173.8L202.4 108.3V64.8H219.5V135ZM284.495 106.2C284.495 107.8 284.395 109.467 284.195 111.2H245.495C245.762 114.667 246.862 117.333 248.795 119.2C250.795 121 253.229 121.9 256.095 121.9C260.362 121.9 263.329 120.1 264.995 116.5H283.195C282.262 120.167 280.562 123.467 278.095 126.4C275.695 129.333 272.662 131.633 268.995 133.3C265.329 134.967 261.229 135.8 256.695 135.8C251.229 135.8 246.362 134.633 242.095 132.3C237.829 129.967 234.495 126.633 232.095 122.3C229.695 117.967 228.495 112.9 228.495 107.1C228.495 101.3 229.662 96.2333 231.995 91.9C234.395 87.5667 237.729 84.2333 241.995 81.9C246.262 79.5667 251.162 78.4 256.695 78.4C262.095 78.4 266.895 79.5333 271.095 81.8C275.295 84.0667 278.562 87.3 280.895 91.5C283.295 95.7 284.495 100.6 284.495 106.2ZM266.995 101.7C266.995 98.7667 265.995 96.4333 263.995 94.7C261.995 92.9667 259.495 92.1 256.495 92.1C253.629 92.1 251.195 92.9333 249.195 94.6C247.262 96.2667 246.062 98.6333 245.595 101.7H266.995ZM373.616 79.2L358.516 135H339.616L330.816 98.8L321.716 135H302.916L287.716 79.2H304.816L312.716 119.1L322.116 79.2H340.216L349.716 118.9L357.516 79.2H373.616ZM462.129 64.8V135H445.029V106.1H418.429V135H401.329V64.8H418.429V92.3H445.029V64.8H462.129ZM499.873 135.8C494.407 135.8 489.473 134.633 485.073 132.3C480.74 129.967 477.307 126.633 474.773 122.3C472.307 117.967 471.073 112.9 471.073 107.1C471.073 101.367 472.34 96.3333 474.873 92C477.407 87.6 480.873 84.2333 485.273 81.9C489.673 79.5667 494.607 78.4 500.073 78.4C505.54 78.4 510.473 79.5667 514.873 81.9C519.273 84.2333 522.74 87.6 525.273 92C527.807 96.3333 529.073 101.367 529.073 107.1C529.073 112.833 527.773 117.9 525.173 122.3C522.64 126.633 519.14 129.967 514.673 132.3C510.273 134.633 505.34 135.8 499.873 135.8ZM499.873 121C503.14 121 505.907 119.8 508.173 117.4C510.507 115 511.673 111.567 511.673 107.1C511.673 102.633 510.54 99.2 508.273 96.8C506.073 94.4 503.34 93.2 500.073 93.2C496.74 93.2 493.973 94.4 491.773 96.8C489.573 99.1333 488.473 102.567 488.473 107.1C488.473 111.567 489.54 115 491.673 117.4C493.873 119.8 496.607 121 499.873 121ZM555.245 88.5C557.245 85.4333 559.745 83.0333 562.745 81.3C565.745 79.5 569.079 78.6 572.745 78.6V96.7H568.045C563.779 96.7 560.579 97.6333 558.445 99.5C556.312 101.3 555.245 104.5 555.245 109.1V135H538.145V79.2H555.245V88.5ZM589.519 73.4C586.519 73.4 584.052 72.5333 582.119 70.8C580.252 69 579.319 66.8 579.319 64.2C579.319 61.5333 580.252 59.3333 582.119 57.6C584.052 55.8 586.519 54.9 589.519 54.9C592.452 54.9 594.852 55.8 596.719 57.6C598.652 59.3333 599.619 61.5333 599.619 64.2C599.619 66.8 598.652 69 596.719 70.8C594.852 72.5333 592.452 73.4 589.519 73.4ZM598.019 79.2V135H580.919V79.2H598.019ZM626.411 120.9H650.611V135H607.311V121.4L630.511 93.3H607.511V79.2H650.111V92.8L626.411 120.9ZM685.42 135.8C679.954 135.8 675.02 134.633 670.62 132.3C666.287 129.967 662.854 126.633 660.32 122.3C657.854 117.967 656.62 112.9 656.62 107.1C656.62 101.367 657.887 96.3333 660.42 92C662.954 87.6 666.42 84.2333 670.82 81.9C675.22 79.5667 680.154 78.4 685.62 78.4C691.087 78.4 696.02 79.5667 700.42 81.9C704.82 84.2333 708.287 87.6 710.82 92C713.354 96.3333 714.62 101.367 714.62 107.1C714.62 112.833 713.32 117.9 710.72 122.3C708.187 126.633 704.687 129.967 700.22 132.3C695.82 134.633 690.887 135.8 685.42 135.8ZM685.42 121C688.687 121 691.454 119.8 693.72 117.4C696.054 115 697.22 111.567 697.22 107.1C697.22 102.633 696.087 99.2 693.82 96.8C691.62 94.4 688.887 93.2 685.62 93.2C682.287 93.2 679.52 94.4 677.32 96.8C675.12 99.1333 674.02 102.567 674.02 107.1C674.02 111.567 675.087 115 677.22 117.4C679.42 119.8 682.154 121 685.42 121ZM757.692 78.6C764.226 78.6 769.426 80.7333 773.292 85C777.226 89.2 779.192 95 779.192 102.4V135H762.192V104.7C762.192 100.967 761.226 98.0667 759.292 96C757.359 93.9333 754.759 92.9 751.492 92.9C748.226 92.9 745.626 93.9333 743.692 96C741.759 98.0667 740.792 100.967 740.792 104.7V135H723.692V79.2H740.792V86.6C742.526 84.1333 744.859 82.2 747.792 80.8C750.726 79.3333 754.026 78.6 757.692 78.6ZM862.766 64.8V78.5H844.166V135H827.066V78.5H808.466V64.8H862.766ZM923.948 106.2C923.948 107.8 923.848 109.467 923.648 111.2H884.948C885.215 114.667 886.315 117.333 888.248 119.2C890.248 121 892.682 121.9 895.548 121.9C899.815 121.9 902.782 120.1 904.448 116.5H922.648C921.715 120.167 920.015 123.467 917.548 126.4C915.148 129.333 912.115 131.633 908.448 133.3C904.782 134.967 900.682 135.8 896.148 135.8C890.682 135.8 885.815 134.633 881.548 132.3C877.282 129.967 873.948 126.633 871.548 122.3C869.148 117.967 867.948 112.9 867.948 107.1C867.948 101.3 869.115 96.2333 871.448 91.9C873.848 87.5667 877.182 84.2333 881.448 81.9C885.715 79.5667 890.615 78.4 896.148 78.4C901.548 78.4 906.348 79.5333 910.548 81.8C914.748 84.0667 918.015 87.3 920.348 91.5C922.748 95.7 923.948 100.6 923.948 106.2ZM906.448 101.7C906.448 98.7667 905.448 96.4333 903.448 94.7C901.448 92.9667 898.948 92.1 895.948 92.1C893.082 92.1 890.648 92.9333 888.648 94.6C886.715 96.2667 885.515 98.6333 885.048 101.7H906.448ZM929.57 107.1C929.57 101.3 930.736 96.2333 933.07 91.9C935.47 87.5667 938.77 84.2333 942.97 81.9C947.236 79.5667 952.103 78.4 957.57 78.4C964.57 78.4 970.403 80.2333 975.07 83.9C979.803 87.5667 982.903 92.7333 984.37 99.4H966.17C964.636 95.1333 961.67 93 957.27 93C954.136 93 951.636 94.2333 949.77 96.7C947.903 99.1 946.97 102.567 946.97 107.1C946.97 111.633 947.903 115.133 949.77 117.6C951.636 120 954.136 121.2 957.27 121.2C961.67 121.2 964.636 119.067 966.17 114.8H984.37C982.903 121.333 979.803 126.467 975.07 130.2C970.336 133.933 964.503 135.8 957.57 135.8C952.103 135.8 947.236 134.633 942.97 132.3C938.77 129.967 935.47 126.633 933.07 122.3C930.736 117.967 929.57 112.9 929.57 107.1ZM1027.82 78.6C1034.22 78.6 1039.35 80.7333 1043.22 85C1047.08 89.2 1049.02 95 1049.02 102.4V135H1032.02V104.7C1032.02 100.967 1031.05 98.0667 1029.12 96C1027.18 93.9333 1024.58 92.9 1021.32 92.9C1018.05 92.9 1015.45 93.9333 1013.52 96C1011.58 98.0667 1010.62 100.967 1010.62 104.7V135H993.516V61H1010.62V86.7C1012.35 84.2333 1014.72 82.2667 1017.72 80.8C1020.72 79.3333 1024.08 78.6 1027.82 78.6ZM1094.9 78.6C1101.43 78.6 1106.63 80.7333 1110.5 85C1114.43 89.2 1116.4 95 1116.4 102.4V135H1099.4V104.7C1099.4 100.967 1098.43 98.0667 1096.5 96C1094.57 93.9333 1091.97 92.9 1088.7 92.9C1085.43 92.9 1082.83 93.9333 1080.9 96C1078.97 98.0667 1078 100.967 1078 104.7V135H1060.9V79.2H1078V86.6C1079.73 84.1333 1082.07 82.2 1085 80.8C1087.93 79.3333 1091.23 78.6 1094.9 78.6ZM1153.68 135.8C1148.22 135.8 1143.28 134.633 1138.88 132.3C1134.55 129.967 1131.12 126.633 1128.58 122.3C1126.12 117.967 1124.88 112.9 1124.88 107.1C1124.88 101.367 1126.15 96.3333 1128.68 92C1131.22 87.6 1134.68 84.2333 1139.08 81.9C1143.48 79.5667 1148.42 78.4 1153.88 78.4C1159.35 78.4 1164.28 79.5667 1168.68 81.9C1173.08 84.2333 1176.55 87.6 1179.08 92C1181.62 96.3333 1182.88 101.367 1182.88 107.1C1182.88 112.833 1181.58 117.9 1178.98 122.3C1176.45 126.633 1172.95 129.967 1168.48 132.3C1164.08 134.633 1159.15 135.8 1153.68 135.8ZM1153.68 121C1156.95 121 1159.72 119.8 1161.98 117.4C1164.32 115 1165.48 111.567 1165.48 107.1C1165.48 102.633 1164.35 99.2 1162.08 96.8C1159.88 94.4 1157.15 93.2 1153.88 93.2C1150.55 93.2 1147.78 94.4 1145.58 96.8C1143.38 99.1333 1142.28 102.567 1142.28 107.1C1142.28 111.567 1143.35 115 1145.48 117.4C1147.68 119.8 1150.42 121 1153.68 121ZM1209.05 61V135H1191.95V61H1209.05ZM1246.85 135.8C1241.38 135.8 1236.45 134.633 1232.05 132.3C1227.71 129.967 1224.28 126.633 1221.75 122.3C1219.28 117.967 1218.05 112.9 1218.05 107.1C1218.05 101.367 1219.31 96.3333 1221.85 92C1224.38 87.6 1227.85 84.2333 1232.25 81.9C1236.65 79.5667 1241.58 78.4 1247.05 78.4C1252.51 78.4 1257.45 79.5667 1261.85 81.9C1266.25 84.2333 1269.71 87.6 1272.25 92C1274.78 96.3333 1276.05 101.367 1276.05 107.1C1276.05 112.833 1274.75 117.9 1272.15 122.3C1269.61 126.633 1266.11 129.967 1261.65 132.3C1257.25 134.633 1252.31 135.8 1246.85 135.8ZM1246.85 121C1250.11 121 1252.88 119.8 1255.15 117.4C1257.48 115 1258.65 111.567 1258.65 107.1C1258.65 102.633 1257.51 99.2 1255.25 96.8C1253.05 94.4 1250.31 93.2 1247.05 93.2C1243.71 93.2 1240.95 94.4 1238.75 96.8C1236.55 99.1333 1235.45 102.567 1235.45 107.1C1235.45 111.567 1236.51 115 1238.65 117.4C1240.85 119.8 1243.58 121 1246.85 121ZM1306.32 78.4C1310.25 78.4 1313.68 79.2 1316.62 80.8C1319.62 82.4 1321.92 84.5 1323.52 87.1V79.2H1340.62V134.9C1340.62 140.033 1339.58 144.667 1337.52 148.8C1335.52 153 1332.42 156.333 1328.22 158.8C1324.08 161.267 1318.92 162.5 1312.72 162.5C1304.45 162.5 1297.75 160.533 1292.62 156.6C1287.48 152.733 1284.55 147.467 1283.82 140.8H1300.72C1301.25 142.933 1302.52 144.6 1304.52 145.8C1306.52 147.067 1308.98 147.7 1311.92 147.7C1315.45 147.7 1318.25 146.667 1320.32 144.6C1322.45 142.6 1323.52 139.367 1323.52 134.9V127C1321.85 129.6 1319.55 131.733 1316.62 133.4C1313.68 135 1310.25 135.8 1306.32 135.8C1301.72 135.8 1297.55 134.633 1293.82 132.3C1290.08 129.9 1287.12 126.533 1284.92 122.2C1282.78 117.8 1281.72 112.733 1281.72 107C1281.72 101.267 1282.78 96.2333 1284.92 91.9C1287.12 87.5667 1290.08 84.2333 1293.82 81.9C1297.55 79.5667 1301.72 78.4 1306.32 78.4ZM1323.52 107.1C1323.52 102.833 1322.32 99.4667 1319.92 97C1317.58 94.5333 1314.72 93.3 1311.32 93.3C1307.92 93.3 1305.02 94.5333 1302.62 97C1300.28 99.4 1299.12 102.733 1299.12 107C1299.12 111.267 1300.28 114.667 1302.62 117.2C1305.02 119.667 1307.92 120.9 1311.32 120.9C1314.72 120.9 1317.58 119.667 1319.92 117.2C1322.32 114.733 1323.52 111.367 1323.52 107.1ZM1409.99 79.2L1374.99 161.5H1356.59L1369.39 133.1L1346.69 79.2H1365.79L1378.69 114.1L1391.49 79.2H1409.99Z" fill="#F5F5F5"/>
</svg>
