<svg width="275" height="121" viewBox="0 0 275 121" fill="none" xmlns="http://www.w3.org/2000/svg">
<g filter="url(#filter0_b_98_3533)">
<path d="M14.2915 7.42038C13.5041 4.79548 16.3586 2.57588 18.7085 3.98585L47.2833 21.1307C47.9141 21.5092 48.3838 22.1062 48.6032 22.8084L59.1112 56.4338C59.7149 58.3656 58.2717 60.3286 56.2478 60.3286H32.3961C31.0713 60.3286 29.9033 59.4596 29.5226 58.1907L14.2915 7.42038Z" fill="#F6F6F6"/>
<path d="M46.0366 113.237C46.8241 115.862 43.9696 118.081 41.6196 116.671L13.0448 99.5265C12.414 99.148 11.9443 98.551 11.7249 97.8489L1.21693 64.2234C0.613248 62.2916 2.05645 60.3286 4.08037 60.3286H27.932C29.2568 60.3286 30.4248 61.1976 30.8055 62.4666L46.0366 113.237Z" fill="#F6F6F6"/>
</g>
<path d="M27.3184 50.8427L39.8394 60.2799C39.8394 60.2799 34.0068 60.2799 32.4407 61.846C30.8745 63.4121 32.4407 67.9168 32.4407 67.9168L21.2476 60.3283C21.2476 60.3283 27.2224 60.2799 28.3844 59.1179C29.5465 57.9558 27.3184 50.8427 27.3184 50.8427Z" fill="#F5F5F5"/>
<path d="M106.707 34H101.328L92.3302 20.3778V34H86.9505V11.9151H92.3302L101.328 25.6002V11.9151H106.707V34ZM127.155 24.9395C127.155 25.4429 127.123 25.9672 127.061 26.5125H114.886C114.969 27.6031 115.315 28.4421 115.924 29.0293C116.553 29.5956 117.318 29.8787 118.22 29.8787C119.563 29.8787 120.496 29.3125 121.02 28.1799H126.746C126.452 29.3334 125.917 30.3716 125.141 31.2944C124.386 32.2173 123.432 32.9408 122.279 33.4652C121.125 33.9895 119.835 34.2517 118.409 34.2517C116.689 34.2517 115.158 33.8846 113.816 33.1506C112.474 32.4165 111.425 31.3678 110.67 30.0046C109.915 28.6413 109.537 27.0473 109.537 25.2227C109.537 23.398 109.904 21.804 110.638 20.4407C111.393 19.0775 112.442 18.0288 113.784 17.2947C115.127 16.5607 116.668 16.1936 118.409 16.1936C120.108 16.1936 121.618 16.5502 122.939 17.2633C124.261 17.9764 125.288 18.9936 126.022 20.3149C126.777 21.6362 127.155 23.1778 127.155 24.9395ZM121.649 23.5238C121.649 22.601 121.335 21.8669 120.706 21.3216C120.076 20.7763 119.29 20.5037 118.346 20.5037C117.444 20.5037 116.679 20.7658 116.05 21.2902C115.441 21.8145 115.064 22.559 114.917 23.5238H121.649ZM155.192 16.4453L150.442 34H144.496L141.728 22.6115L138.865 34H132.95L128.168 16.4453H133.548L136.033 28.9979L138.991 16.4453H144.685L147.673 28.9349L150.127 16.4453H155.192ZM106.078 48.9151V71H100.699V61.9081H92.3302V71H86.9505V48.9151H92.3302V57.5666H100.699V48.9151H106.078ZM117.953 71.2517C116.233 71.2517 114.681 70.8846 113.297 70.1506C111.933 69.4165 110.853 68.3678 110.056 67.0046C109.28 65.6413 108.892 64.0473 108.892 62.2227C108.892 60.419 109.291 58.8355 110.088 57.4722C110.885 56.088 111.975 55.0288 113.359 54.2947C114.744 53.5607 116.296 53.1936 118.016 53.1936C119.735 53.1936 121.287 53.5607 122.672 54.2947C124.056 55.0288 125.146 56.088 125.943 57.4722C126.74 58.8355 127.139 60.419 127.139 62.2227C127.139 64.0264 126.73 65.6203 125.912 67.0046C125.115 68.3678 124.014 69.4165 122.609 70.1506C121.224 70.8846 119.672 71.2517 117.953 71.2517ZM117.953 66.5956C118.98 66.5956 119.851 66.2181 120.564 65.463C121.298 64.708 121.665 63.6279 121.665 62.2227C121.665 60.8174 121.308 59.7373 120.595 58.9823C119.903 58.2272 119.043 57.8497 118.016 57.8497C116.967 57.8497 116.096 58.2272 115.404 58.9823C114.712 59.7163 114.366 60.7965 114.366 62.2227C114.366 63.6279 114.702 64.708 115.373 65.463C116.065 66.2181 116.925 66.5956 117.953 66.5956ZM135.373 56.3711C136.002 55.4063 136.788 54.6513 137.732 54.106C138.676 53.5397 139.725 53.2566 140.878 53.2566V58.9508H139.4C138.057 58.9508 137.05 59.2444 136.379 59.8317C135.708 60.398 135.373 61.4047 135.373 62.8519V71H129.993V53.4453H135.373V56.3711ZM146.155 51.6206C145.211 51.6206 144.435 51.348 143.827 50.8027C143.24 50.2364 142.946 49.5443 142.946 48.7263C142.946 47.8874 143.24 47.1953 143.827 46.65C144.435 46.0837 145.211 45.8005 146.155 45.8005C147.078 45.8005 147.833 46.0837 148.42 46.65C149.028 47.1953 149.333 47.8874 149.333 48.7263C149.333 49.5443 149.028 50.2364 148.42 50.8027C147.833 51.348 147.078 51.6206 146.155 51.6206ZM148.829 53.4453V71H143.449V53.4453H148.829ZM157.761 66.5641H165.375V71H151.752V66.7214L159.051 57.8812H151.815V53.4453H165.217V57.7239L157.761 66.5641ZM176.326 71.2517C174.606 71.2517 173.054 70.8846 171.67 70.1506C170.306 69.4165 169.226 68.3678 168.429 67.0046C167.653 65.6413 167.265 64.0473 167.265 62.2227C167.265 60.419 167.664 58.8355 168.461 57.4722C169.258 56.088 170.348 55.0288 171.733 54.2947C173.117 53.5607 174.669 53.1936 176.389 53.1936C178.108 53.1936 179.66 53.5607 181.045 54.2947C182.429 55.0288 183.52 56.088 184.317 57.4722C185.114 58.8355 185.512 60.419 185.512 62.2227C185.512 64.0264 185.103 65.6203 184.285 67.0046C183.488 68.3678 182.387 69.4165 180.982 70.1506C179.598 70.8846 178.045 71.2517 176.326 71.2517ZM176.326 66.5956C177.353 66.5956 178.224 66.2181 178.937 65.463C179.671 64.708 180.038 63.6279 180.038 62.2227C180.038 60.8174 179.681 59.7373 178.968 58.9823C178.276 58.2272 177.416 57.8497 176.389 57.8497C175.34 57.8497 174.47 58.2272 173.777 58.9823C173.085 59.7163 172.739 60.7965 172.739 62.2227C172.739 63.6279 173.075 64.708 173.746 65.463C174.438 66.2181 175.298 66.5956 176.326 66.5956ZM199.062 53.2566C201.118 53.2566 202.754 53.9277 203.97 55.27C205.208 56.5913 205.826 58.416 205.826 60.744V71H200.478V61.4676C200.478 60.2931 200.174 59.3808 199.566 58.7306C198.958 58.0804 198.14 57.7553 197.112 57.7553C196.084 57.7553 195.266 58.0804 194.658 58.7306C194.05 59.3808 193.746 60.2931 193.746 61.4676V71H188.366V53.4453H193.746V55.7734C194.291 54.9973 195.025 54.3891 195.948 53.9487C196.871 53.4873 197.909 53.2566 199.062 53.2566ZM102.838 85.9151V90.2251H96.9863V108H91.6066V90.2251H85.755V85.9151H102.838ZM122.086 98.9395C122.086 99.4429 122.054 99.9672 121.991 100.513H109.816C109.9 101.603 110.246 102.442 110.854 103.029C111.484 103.596 112.249 103.879 113.151 103.879C114.493 103.879 115.427 103.312 115.951 102.18H121.677C121.383 103.333 120.848 104.372 120.072 105.294C119.317 106.217 118.363 106.941 117.209 107.465C116.056 107.99 114.766 108.252 113.34 108.252C111.62 108.252 110.089 107.885 108.747 107.151C107.404 106.417 106.356 105.368 105.601 104.005C104.846 102.641 104.468 101.047 104.468 99.2227C104.468 97.398 104.835 95.804 105.569 94.4407C106.324 93.0775 107.373 92.0288 108.715 91.2947C110.057 90.5607 111.599 90.1936 113.34 90.1936C115.039 90.1936 116.549 90.5502 117.87 91.2633C119.191 91.9764 120.219 92.9936 120.953 94.3149C121.708 95.6362 122.086 97.1778 122.086 98.9395ZM116.58 97.5238C116.58 96.601 116.266 95.8669 115.636 95.3216C115.007 94.7763 114.221 94.5037 113.277 94.5037C112.375 94.5037 111.61 94.7658 110.98 95.2902C110.372 95.8145 109.995 96.559 109.848 97.5238H116.58ZM123.854 99.2227C123.854 97.398 124.221 95.804 124.955 94.4407C125.71 93.0775 126.748 92.0288 128.07 91.2947C129.412 90.5607 130.943 90.1936 132.663 90.1936C134.865 90.1936 136.7 90.7704 138.168 91.9239C139.657 93.0775 140.633 94.7029 141.094 96.8002H135.368C134.886 95.4579 133.953 94.7868 132.569 94.7868C131.583 94.7868 130.796 95.1748 130.209 95.9508C129.622 96.7059 129.328 97.7965 129.328 99.2227C129.328 100.649 129.622 101.75 130.209 102.526C130.796 103.281 131.583 103.659 132.569 103.659C133.953 103.659 134.886 102.987 135.368 101.645H141.094C140.633 103.7 139.657 105.315 138.168 106.49C136.679 107.664 134.844 108.252 132.663 108.252C130.943 108.252 129.412 107.885 128.07 107.151C126.748 106.417 125.71 105.368 124.955 104.005C124.221 102.641 123.854 101.047 123.854 99.2227ZM154.763 90.2566C156.776 90.2566 158.391 90.9277 159.607 92.27C160.824 93.5913 161.432 95.416 161.432 97.744V108H156.084V98.4676C156.084 97.2931 155.78 96.3808 155.172 95.7306C154.563 95.0804 153.745 94.7553 152.718 94.7553C151.69 94.7553 150.872 95.0804 150.264 95.7306C149.656 96.3808 149.351 97.2931 149.351 98.4676V108H143.972V84.7196H149.351V92.8048C149.897 92.0288 150.641 91.4101 151.585 90.9487C152.529 90.4873 153.588 90.2566 154.763 90.2566ZM175.867 90.2566C177.922 90.2566 179.558 90.9277 180.775 92.27C182.012 93.5913 182.631 95.416 182.631 97.744V108H177.282V98.4676C177.282 97.2931 176.978 96.3808 176.37 95.7306C175.762 95.0804 174.944 94.7553 173.916 94.7553C172.889 94.7553 172.071 95.0804 171.462 95.7306C170.854 96.3808 170.55 97.2931 170.55 98.4676V108H165.17V90.4453H170.55V92.7734C171.095 91.9973 171.829 91.3891 172.752 90.9487C173.675 90.4873 174.713 90.2566 175.867 90.2566ZM194.36 108.252C192.64 108.252 191.088 107.885 189.704 107.151C188.341 106.417 187.26 105.368 186.463 104.005C185.687 102.641 185.299 101.047 185.299 99.2227C185.299 97.419 185.698 95.8355 186.495 94.4722C187.292 93.088 188.382 92.0288 189.767 91.2947C191.151 90.5607 192.703 90.1936 194.423 90.1936C196.143 90.1936 197.695 90.5607 199.079 91.2947C200.463 92.0288 201.554 93.088 202.351 94.4722C203.148 95.8355 203.546 97.419 203.546 99.2227C203.546 101.026 203.137 102.62 202.319 104.005C201.522 105.368 200.421 106.417 199.016 107.151C197.632 107.885 196.08 108.252 194.36 108.252ZM194.36 103.596C195.388 103.596 196.258 103.218 196.971 102.463C197.705 101.708 198.072 100.628 198.072 99.2227C198.072 97.8174 197.716 96.7373 197.003 95.9823C196.31 95.2272 195.45 94.8497 194.423 94.8497C193.374 94.8497 192.504 95.2272 191.812 95.9823C191.119 96.7163 190.773 97.7965 190.773 99.2227C190.773 100.628 191.109 101.708 191.78 102.463C192.472 103.218 193.332 103.596 194.36 103.596ZM211.78 84.7196V108H206.4V84.7196H211.78ZM223.669 108.252C221.949 108.252 220.397 107.885 219.013 107.151C217.65 106.417 216.57 105.368 215.773 104.005C214.997 102.641 214.609 101.047 214.609 99.2227C214.609 97.419 215.007 95.8355 215.804 94.4722C216.601 93.088 217.692 92.0288 219.076 91.2947C220.46 90.5607 222.012 90.1936 223.732 90.1936C225.452 90.1936 227.004 90.5607 228.388 91.2947C229.773 92.0288 230.863 93.088 231.66 94.4722C232.457 95.8355 232.856 97.419 232.856 99.2227C232.856 101.026 232.447 102.62 231.629 104.005C230.832 105.368 229.731 106.417 228.325 107.151C226.941 107.885 225.389 108.252 223.669 108.252ZM223.669 103.596C224.697 103.596 225.567 103.218 226.28 102.463C227.015 101.708 227.382 100.628 227.382 99.2227C227.382 97.8174 227.025 96.7373 226.312 95.9823C225.62 95.2272 224.76 94.8497 223.732 94.8497C222.684 94.8497 221.813 95.2272 221.121 95.9823C220.429 96.7163 220.083 97.7965 220.083 99.2227C220.083 100.628 220.418 101.708 221.09 102.463C221.782 103.218 222.642 103.596 223.669 103.596ZM242.379 90.1936C243.617 90.1936 244.697 90.4453 245.62 90.9487C246.563 91.452 247.287 92.1127 247.79 92.9307V90.4453H253.17V107.969C253.17 109.583 252.845 111.041 252.195 112.341C251.565 113.663 250.59 114.711 249.269 115.487C247.969 116.263 246.343 116.651 244.393 116.651C241.792 116.651 239.684 116.033 238.069 114.795C236.454 113.579 235.531 111.922 235.301 109.825H240.617C240.785 110.496 241.184 111.02 241.813 111.398C242.442 111.796 243.218 111.995 244.141 111.995C245.252 111.995 246.133 111.67 246.784 111.02C247.455 110.391 247.79 109.374 247.79 107.969V105.483C247.266 106.301 246.542 106.972 245.62 107.497C244.697 108 243.617 108.252 242.379 108.252C240.932 108.252 239.621 107.885 238.447 107.151C237.272 106.396 236.339 105.336 235.647 103.973C234.976 102.589 234.64 100.995 234.64 99.1912C234.64 97.3875 234.976 95.804 235.647 94.4407C236.339 93.0775 237.272 92.0288 238.447 91.2947C239.621 90.5607 240.932 90.1936 242.379 90.1936ZM247.79 99.2227C247.79 97.8804 247.413 96.8212 246.658 96.0452C245.924 95.2692 245.022 94.8812 243.952 94.8812C242.882 94.8812 241.97 95.2692 241.215 96.0452C240.481 96.8002 240.114 97.8489 240.114 99.1912C240.114 100.533 240.481 101.603 241.215 102.4C241.97 103.176 242.882 103.564 243.952 103.564C245.022 103.564 245.924 103.176 246.658 102.4C247.413 101.624 247.79 100.565 247.79 99.2227ZM274.994 90.4453L263.983 116.337H258.194L262.221 107.402L255.08 90.4453H261.089L265.147 101.425L269.174 90.4453H274.994Z" fill="#F5F5F5"/>
<defs>
<filter id="filter0_b_98_3533" x="-142.922" y="-140.452" width="346.172" height="401.562" filterUnits="userSpaceOnUse" color-interpolation-filters="sRGB">
<feFlood flood-opacity="0" result="BackgroundImageFix"/>
<feGaussianBlur in="BackgroundImageFix" stdDeviation="72"/>
<feComposite in2="SourceAlpha" operator="in" result="effect1_backgroundBlur_98_3533"/>
<feBlend mode="normal" in="SourceGraphic" in2="effect1_backgroundBlur_98_3533" result="shape"/>
</filter>
</defs>
</svg>
