<svg width="173" height="66" viewBox="0 0 173 66" fill="none" xmlns="http://www.w3.org/2000/svg">
<path d="M6.59985 0L26.3999 11.88L32.9999 33H16.4999L6.59985 0Z" fill="#F6F6F6"/>
<path d="M26.4001 66L6.60015 54.12L0.00014782 33H16.5001L26.4001 66Z" fill="#F6F6F6"/>
<path opacity="0.9" d="M65.8 20H62.38L56.66 11.34V20H53.24V5.96H56.66L62.38 14.66V5.96H65.8V20ZM78.7991 14.24C78.7991 14.56 78.7791 14.8933 78.7391 15.24H70.9991C71.0524 15.9333 71.2724 16.4667 71.6591 16.84C72.0591 17.2 72.5457 17.38 73.1191 17.38C73.9724 17.38 74.5657 17.02 74.8991 16.3H78.5391C78.3524 17.0333 78.0124 17.6933 77.5191 18.28C77.0391 18.8667 76.4324 19.3267 75.6991 19.66C74.9657 19.9933 74.1457 20.16 73.2391 20.16C72.1457 20.16 71.1724 19.9267 70.3191 19.46C69.4657 18.9933 68.7991 18.3267 68.3191 17.46C67.8391 16.5933 67.5991 15.58 67.5991 14.42C67.5991 13.26 67.8324 12.2467 68.2991 11.38C68.7791 10.5133 69.4457 9.84667 70.2991 9.38C71.1524 8.91333 72.1324 8.68 73.2391 8.68C74.3191 8.68 75.2791 8.90667 76.1191 9.36C76.9591 9.81333 77.6124 10.46 78.0791 11.3C78.5591 12.14 78.7991 13.12 78.7991 14.24ZM75.2991 13.34C75.2991 12.7533 75.0991 12.2867 74.6991 11.94C74.2991 11.5933 73.7991 11.42 73.1991 11.42C72.6257 11.42 72.1391 11.5867 71.7391 11.92C71.3524 12.2533 71.1124 12.7267 71.0191 13.34H75.2991ZM96.6233 8.84L93.6033 20H89.8233L88.0633 12.76L86.2433 20H82.4833L79.4433 8.84H82.8633L84.4433 16.82L86.3233 8.84H89.9433L91.8433 16.78L93.4033 8.84H96.6233ZM65.4 25.96V40H61.98V34.22H56.66V40H53.24V25.96H56.66V31.46H61.98V25.96H65.4ZM72.9489 40.16C71.8556 40.16 70.8689 39.9267 69.9889 39.46C69.1222 38.9933 68.4356 38.3267 67.9289 37.46C67.4356 36.5933 67.1889 35.58 67.1889 34.42C67.1889 33.2733 67.4422 32.2667 67.9489 31.4C68.4556 30.52 69.1489 29.8467 70.0289 29.38C70.9089 28.9133 71.8956 28.68 72.9889 28.68C74.0822 28.68 75.0689 28.9133 75.9489 29.38C76.8289 29.8467 77.5222 30.52 78.0289 31.4C78.5356 32.2667 78.7889 33.2733 78.7889 34.42C78.7889 35.5667 78.5289 36.58 78.0089 37.46C77.5022 38.3267 76.8022 38.9933 75.9089 39.46C75.0289 39.9267 74.0422 40.16 72.9489 40.16ZM72.9489 37.2C73.6022 37.2 74.1556 36.96 74.6089 36.48C75.0756 36 75.3089 35.3133 75.3089 34.42C75.3089 33.5267 75.0822 32.84 74.6289 32.36C74.1889 31.88 73.6422 31.64 72.9889 31.64C72.3222 31.64 71.7689 31.88 71.3289 32.36C70.8889 32.8267 70.6689 33.5133 70.6689 34.42C70.6689 35.3133 70.8822 36 71.3089 36.48C71.7489 36.96 72.2956 37.2 72.9489 37.2ZM84.0233 30.7C84.4233 30.0867 84.9233 29.6067 85.5233 29.26C86.1233 28.9 86.7899 28.72 87.5233 28.72V32.34H86.5833C85.7299 32.34 85.0899 32.5267 84.6633 32.9C84.2366 33.26 84.0233 33.9 84.0233 34.82V40H80.6033V28.84H84.0233V30.7ZM90.878 27.68C90.278 27.68 89.7846 27.5067 89.398 27.16C89.0246 26.8 88.838 26.36 88.838 25.84C88.838 25.3067 89.0246 24.8667 89.398 24.52C89.7846 24.16 90.278 23.98 90.878 23.98C91.4646 23.98 91.9446 24.16 92.318 24.52C92.7046 24.8667 92.898 25.3067 92.898 25.84C92.898 26.36 92.7046 26.8 92.318 27.16C91.9446 27.5067 91.4646 27.68 90.878 27.68ZM92.578 28.84V40H89.158V28.84H92.578ZM98.2564 37.18H103.096V40H94.4364V37.28L99.0764 31.66H94.4764V28.84H102.996V31.56L98.2564 37.18ZM110.058 40.16C108.965 40.16 107.978 39.9267 107.098 39.46C106.232 38.9933 105.545 38.3267 105.038 37.46C104.545 36.5933 104.298 35.58 104.298 34.42C104.298 33.2733 104.552 32.2667 105.058 31.4C105.565 30.52 106.258 29.8467 107.138 29.38C108.018 28.9133 109.005 28.68 110.098 28.68C111.192 28.68 112.178 28.9133 113.058 29.38C113.938 29.8467 114.632 30.52 115.138 31.4C115.645 32.2667 115.898 33.2733 115.898 34.42C115.898 35.5667 115.638 36.58 115.118 37.46C114.612 38.3267 113.912 38.9933 113.018 39.46C112.138 39.9267 111.152 40.16 110.058 40.16ZM110.058 37.2C110.712 37.2 111.265 36.96 111.718 36.48C112.185 36 112.418 35.3133 112.418 34.42C112.418 33.5267 112.192 32.84 111.738 32.36C111.298 31.88 110.752 31.64 110.098 31.64C109.432 31.64 108.878 31.88 108.438 32.36C107.998 32.8267 107.778 33.5133 107.778 34.42C107.778 35.3133 107.992 36 108.418 36.48C108.858 36.96 109.405 37.2 110.058 37.2ZM124.513 28.72C125.819 28.72 126.859 29.1467 127.633 30C128.419 30.84 128.813 32 128.813 33.48V40H125.413V33.94C125.413 33.1933 125.219 32.6133 124.833 32.2C124.446 31.7867 123.926 31.58 123.273 31.58C122.619 31.58 122.099 31.7867 121.713 32.2C121.326 32.6133 121.133 33.1933 121.133 33.94V40H117.713V28.84H121.133V30.32C121.479 29.8267 121.946 29.44 122.533 29.16C123.119 28.8667 123.779 28.72 124.513 28.72ZM63.34 45.96V48.7H59.62V60H56.2V48.7H52.48V45.96H63.34ZM75.5764 54.24C75.5764 54.56 75.5564 54.8933 75.5164 55.24H67.7764C67.8297 55.9333 68.0497 56.4667 68.4364 56.84C68.8364 57.2 69.3231 57.38 69.8964 57.38C70.7497 57.38 71.3431 57.02 71.6764 56.3H75.3164C75.1297 57.0333 74.7897 57.6933 74.2964 58.28C73.8164 58.8667 73.2097 59.3267 72.4764 59.66C71.7431 59.9933 70.9231 60.16 70.0164 60.16C68.9231 60.16 67.9497 59.9267 67.0964 59.46C66.2431 58.9933 65.5764 58.3267 65.0964 57.46C64.6164 56.5933 64.3764 55.58 64.3764 54.42C64.3764 53.26 64.6097 52.2467 65.0764 51.38C65.5564 50.5133 66.2231 49.8467 67.0764 49.38C67.9297 48.9133 68.9097 48.68 70.0164 48.68C71.0964 48.68 72.0564 48.9067 72.8964 49.36C73.7364 49.8133 74.3897 50.46 74.8564 51.3C75.3364 52.14 75.5764 53.12 75.5764 54.24ZM72.0764 53.34C72.0764 52.7533 71.8764 52.2867 71.4764 51.94C71.0764 51.5933 70.5764 51.42 69.9764 51.42C69.4031 51.42 68.9164 51.5867 68.5164 51.92C68.1297 52.2533 67.8897 52.7267 67.7964 53.34H72.0764ZM76.7006 54.42C76.7006 53.26 76.934 52.2467 77.4006 51.38C77.8806 50.5133 78.5406 49.8467 79.3806 49.38C80.234 48.9133 81.2073 48.68 82.3006 48.68C83.7006 48.68 84.8673 49.0467 85.8006 49.78C86.7473 50.5133 87.3673 51.5467 87.6606 52.88H84.0206C83.714 52.0267 83.1206 51.6 82.2406 51.6C81.614 51.6 81.114 51.8467 80.7406 52.34C80.3673 52.82 80.1806 53.5133 80.1806 54.42C80.1806 55.3267 80.3673 56.0267 80.7406 56.52C81.114 57 81.614 57.24 82.2406 57.24C83.1206 57.24 83.714 56.8133 84.0206 55.96H87.6606C87.3673 57.2667 86.7473 58.2933 85.8006 59.04C84.854 59.7867 83.6873 60.16 82.3006 60.16C81.2073 60.16 80.234 59.9267 79.3806 59.46C78.5406 58.9933 77.8806 58.3267 77.4006 57.46C76.934 56.5933 76.7006 55.58 76.7006 54.42ZM96.35 48.72C97.63 48.72 98.6567 49.1467 99.43 50C100.203 50.84 100.59 52 100.59 53.48V60H97.19V53.94C97.19 53.1933 96.9967 52.6133 96.61 52.2C96.2233 51.7867 95.7033 51.58 95.05 51.58C94.3967 51.58 93.8767 51.7867 93.49 52.2C93.1033 52.6133 92.91 53.1933 92.91 53.94V60H89.49V45.2H92.91V50.34C93.2567 49.8467 93.73 49.4533 94.33 49.16C94.93 48.8667 95.6033 48.72 96.35 48.72ZM109.767 48.72C111.073 48.72 112.113 49.1467 112.887 50C113.673 50.84 114.067 52 114.067 53.48V60H110.667V53.94C110.667 53.1933 110.473 52.6133 110.087 52.2C109.7 51.7867 109.18 51.58 108.527 51.58C107.873 51.58 107.353 51.7867 106.967 52.2C106.58 52.6133 106.387 53.1933 106.387 53.94V60H102.967V48.84H106.387V50.32C106.733 49.8267 107.2 49.44 107.787 49.16C108.373 48.8667 109.033 48.72 109.767 48.72ZM121.523 60.16C120.43 60.16 119.443 59.9267 118.563 59.46C117.696 58.9933 117.01 58.3267 116.503 57.46C116.01 56.5933 115.763 55.58 115.763 54.42C115.763 53.2733 116.016 52.2667 116.523 51.4C117.03 50.52 117.723 49.8467 118.603 49.38C119.483 48.9133 120.47 48.68 121.563 48.68C122.656 48.68 123.643 48.9133 124.523 49.38C125.403 49.8467 126.096 50.52 126.603 51.4C127.11 52.2667 127.363 53.2733 127.363 54.42C127.363 55.5667 127.103 56.58 126.583 57.46C126.076 58.3267 125.376 58.9933 124.483 59.46C123.603 59.9267 122.616 60.16 121.523 60.16ZM121.523 57.2C122.176 57.2 122.73 56.96 123.183 56.48C123.65 56 123.883 55.3133 123.883 54.42C123.883 53.5267 123.656 52.84 123.203 52.36C122.763 51.88 122.216 51.64 121.563 51.64C120.896 51.64 120.343 51.88 119.903 52.36C119.463 52.8267 119.243 53.5133 119.243 54.42C119.243 55.3133 119.456 56 119.883 56.48C120.323 56.96 120.87 57.2 121.523 57.2ZM132.598 45.2V60H129.178V45.2H132.598ZM140.156 60.16C139.063 60.16 138.076 59.9267 137.196 59.46C136.329 58.9933 135.643 58.3267 135.136 57.46C134.643 56.5933 134.396 55.58 134.396 54.42C134.396 53.2733 134.649 52.2667 135.156 51.4C135.663 50.52 136.356 49.8467 137.236 49.38C138.116 48.9133 139.103 48.68 140.196 48.68C141.289 48.68 142.276 48.9133 143.156 49.38C144.036 49.8467 144.729 50.52 145.236 51.4C145.743 52.2667 145.996 53.2733 145.996 54.42C145.996 55.5667 145.736 56.58 145.216 57.46C144.709 58.3267 144.009 58.9933 143.116 59.46C142.236 59.9267 141.249 60.16 140.156 60.16ZM140.156 57.2C140.809 57.2 141.363 56.96 141.816 56.48C142.283 56 142.516 55.3133 142.516 54.42C142.516 53.5267 142.289 52.84 141.836 52.36C141.396 51.88 140.849 51.64 140.196 51.64C139.529 51.64 138.976 51.88 138.536 52.36C138.096 52.8267 137.876 53.5133 137.876 54.42C137.876 55.3133 138.089 56 138.516 56.48C138.956 56.96 139.503 57.2 140.156 57.2ZM152.05 48.68C152.837 48.68 153.524 48.84 154.11 49.16C154.71 49.48 155.17 49.9 155.49 50.42V48.84H158.91V59.98C158.91 61.0067 158.704 61.9333 158.29 62.76C157.89 63.6 157.27 64.2667 156.43 64.76C155.604 65.2533 154.57 65.5 153.33 65.5C151.677 65.5 150.337 65.1067 149.31 64.32C148.284 63.5467 147.697 62.4933 147.55 61.16H150.93C151.037 61.5867 151.29 61.92 151.69 62.16C152.09 62.4133 152.584 62.54 153.17 62.54C153.877 62.54 154.437 62.3333 154.85 61.92C155.277 61.52 155.49 60.8733 155.49 59.98V58.4C155.157 58.92 154.697 59.3467 154.11 59.68C153.524 60 152.837 60.16 152.05 60.16C151.13 60.16 150.297 59.9267 149.55 59.46C148.804 58.98 148.21 58.3067 147.77 57.44C147.344 56.56 147.13 55.5467 147.13 54.4C147.13 53.2533 147.344 52.2467 147.77 51.38C148.21 50.5133 148.804 49.8467 149.55 49.38C150.297 48.9133 151.13 48.68 152.05 48.68ZM155.49 54.42C155.49 53.5667 155.25 52.8933 154.77 52.4C154.304 51.9067 153.73 51.66 153.05 51.66C152.37 51.66 151.79 51.9067 151.31 52.4C150.844 52.88 150.61 53.5467 150.61 54.4C150.61 55.2533 150.844 55.9333 151.31 56.44C151.79 56.9333 152.37 57.18 153.05 57.18C153.73 57.18 154.304 56.9333 154.77 56.44C155.25 55.9467 155.49 55.2733 155.49 54.42ZM172.785 48.84L165.785 65.3H162.105L164.665 59.62L160.125 48.84H163.945L166.525 55.82L169.085 48.84H172.785Z" fill="#F6F6F6"/>
</svg>
