<svg width="143" height="32" viewBox="0 0 143 32" fill="none" xmlns="http://www.w3.org/2000/svg">
<path d="M103.169 22.4337L103.282 24.4305L103.169 22.4337ZM142.389 13.2811C142.82 12.2643 142.346 11.0903 141.329 10.6589L124.758 3.62853C123.742 3.19711 122.568 3.67169 122.136 4.68852C121.705 5.70536 122.179 6.8794 123.196 7.31081L137.925 13.56L131.676 28.2891C131.245 29.306 131.719 30.48 132.736 30.9114C133.753 31.3428 134.927 30.8683 135.358 29.8514L142.389 13.2811ZM38.8784 2.56633L38.9907 4.56318L38.8784 2.56633ZM103.282 24.4305C110.985 23.9973 120.532 21.4457 128.042 19.0592C131.82 17.8583 135.128 16.6844 137.492 15.8104C138.675 15.3733 139.622 15.0107 140.276 14.7568C140.603 14.6298 140.856 14.5299 141.029 14.4614C141.115 14.4272 141.181 14.4008 141.226 14.3827C141.249 14.3737 141.266 14.3668 141.278 14.362C141.284 14.3596 141.288 14.3578 141.292 14.3565C141.293 14.3558 141.294 14.3553 141.295 14.3549C141.296 14.3548 141.296 14.3546 141.297 14.3545C141.297 14.3543 141.297 14.3542 140.548 12.5C139.798 10.6458 139.798 10.6457 139.798 10.6457C139.798 10.6458 139.798 10.6458 139.798 10.6459C139.797 10.6461 139.797 10.6464 139.795 10.6468C139.793 10.6477 139.79 10.6492 139.785 10.6512C139.775 10.6552 139.759 10.6613 139.739 10.6695C139.698 10.686 139.636 10.7107 139.554 10.7433C139.389 10.8085 139.145 10.9049 138.827 11.0283C138.192 11.2751 137.265 11.6298 136.105 12.0586C133.785 12.9165 130.537 14.0692 126.83 15.2471C119.369 17.6183 110.226 20.0336 103.057 20.4368L103.282 24.4305ZM1.5 12.5C2.24953 14.3542 2.24944 14.3543 2.24943 14.3543C2.24954 14.3542 2.24962 14.3542 2.24984 14.3541C2.25029 14.3539 2.25107 14.3536 2.2522 14.3532C2.25445 14.3523 2.25805 14.3508 2.263 14.3488C2.2729 14.3448 2.28816 14.3387 2.30868 14.3305C2.34972 14.314 2.41177 14.2893 2.49391 14.2567C2.65819 14.1915 2.9028 14.0951 3.22041 13.9717C3.85567 13.7249 4.78257 13.3702 5.94239 12.9414C8.263 12.0835 11.511 10.9308 15.2176 9.75288C22.679 7.38165 31.8212 4.96637 38.9907 4.56318L38.7661 0.569489C31.0626 1.00271 21.5156 3.55425 14.0061 5.94076C10.2272 7.14167 6.91928 8.31563 4.55535 9.18958C3.37288 9.62673 2.42535 9.98929 1.77175 10.2432C1.44492 10.3702 1.1915 10.4701 1.01885 10.5386C0.932522 10.5728 0.86638 10.5992 0.821345 10.6173C0.798828 10.6263 0.781586 10.6332 0.769736 10.638C0.76381 10.6404 0.759233 10.6422 0.756017 10.6435C0.754409 10.6442 0.753142 10.6447 0.752217 10.6451C0.751754 10.6452 0.751318 10.6454 0.751086 10.6455C0.750736 10.6457 0.750471 10.6458 1.5 12.5ZM38.9907 4.56318C51.22 3.87544 60.3803 8.89836 70.0558 14.2501C79.6487 19.5562 89.7567 25.1911 103.282 24.4305L103.057 20.4368C90.8277 21.1246 81.6673 16.1016 71.9918 10.7499C62.399 5.44382 52.2909 -0.191101 38.7661 0.569489L38.9907 4.56318Z" fill="#CCCBCB"/>
</svg>
