<svg width="143" height="32" viewBox="0 0 143 32" fill="none" xmlns="http://www.w3.org/2000/svg">
<path d="M103.122 9.56633L103.234 7.56949L103.122 9.56633ZM142.341 18.7189C142.773 19.7357 142.298 20.9097 141.281 21.3411L124.711 28.3715C123.694 28.8029 122.52 28.3283 122.089 27.3115C121.657 26.2946 122.132 25.1206 123.149 24.6892L137.878 18.44L131.629 3.71086C131.197 2.69403 131.672 1.51999 132.689 1.08857C133.705 0.657154 134.879 1.13173 135.311 2.14857L142.341 18.7189ZM38.8308 29.4337L38.9431 27.4368L38.8308 29.4337ZM103.234 7.56949C110.937 8.0027 120.484 10.5543 127.994 12.9408C131.773 14.1417 135.081 15.3156 137.445 16.1896C138.627 16.6267 139.575 16.9893 140.228 17.2432C140.555 17.3702 140.809 17.4701 140.981 17.5386C141.067 17.5728 141.134 17.5992 141.179 17.6173C141.201 17.6263 141.218 17.6332 141.23 17.638C141.236 17.6404 141.241 17.6422 141.244 17.6435C141.246 17.6442 141.247 17.6447 141.248 17.6451C141.248 17.6452 141.249 17.6454 141.249 17.6455C141.249 17.6457 141.25 17.6458 140.5 19.5C139.75 21.3542 139.751 21.3543 139.751 21.3543C139.75 21.3542 139.75 21.3542 139.75 21.3541C139.75 21.3539 139.749 21.3536 139.748 21.3532C139.746 21.3523 139.742 21.3508 139.737 21.3488C139.727 21.3448 139.712 21.3387 139.691 21.3305C139.65 21.314 139.588 21.2893 139.506 21.2567C139.342 21.1915 139.097 21.0951 138.78 20.9717C138.144 20.7249 137.217 20.3702 136.058 19.9414C133.737 19.0835 130.489 17.9308 126.782 16.7529C119.321 14.3817 110.179 11.9664 103.009 11.5632L103.234 7.56949ZM1.45239 19.5C2.20192 17.6458 2.20183 17.6457 2.20182 17.6457C2.20193 17.6458 2.20201 17.6458 2.20223 17.6459C2.20268 17.6461 2.20346 17.6464 2.20459 17.6468C2.20684 17.6477 2.21045 17.6492 2.21539 17.6512C2.22529 17.6552 2.24056 17.6613 2.26108 17.6695C2.30211 17.686 2.36416 17.7107 2.4463 17.7433C2.61058 17.8085 2.8552 17.9049 3.1728 18.0283C3.80806 18.2751 4.73497 18.6298 5.89478 19.0586C8.2154 19.9165 11.4634 21.0692 15.17 22.2471C22.6314 24.6183 31.7736 27.0336 38.9431 27.4368L38.7185 31.4305C31.015 30.9973 21.468 28.4457 13.9585 26.0592C10.1796 24.8583 6.87168 23.6844 4.50774 22.8104C3.32528 22.3733 2.37775 22.0107 1.72415 21.7568C1.39732 21.6298 1.14389 21.5299 0.971242 21.4614C0.884914 21.4272 0.818772 21.4008 0.773738 21.3827C0.75122 21.3737 0.733979 21.3668 0.722128 21.362C0.716203 21.3596 0.711625 21.3578 0.70841 21.3565C0.706802 21.3558 0.705534 21.3553 0.704609 21.3549C0.704147 21.3548 0.70371 21.3546 0.703479 21.3545C0.703128 21.3543 0.702863 21.3542 1.45239 19.5ZM38.9431 27.4368C51.1724 28.1246 60.3327 23.1016 70.0082 17.7499C79.6011 12.4438 89.7091 6.8089 103.234 7.56949L103.009 11.5632C90.78 10.8754 81.6197 15.8984 71.9442 21.2501C62.3514 26.5562 52.2433 32.1911 38.7185 31.4305L38.9431 27.4368Z" fill="#CCCBCB"/>
</svg>
