<svg width="125" height="76" viewBox="0 0 125 76" fill="none" xmlns="http://www.w3.org/2000/svg">
<path d="M0.401168 0H25.7239C30.7366 0 34.4745 0.168099 36.9376 0.504303C39.4008 0.840507 41.6046 1.54189 43.5492 2.60847C45.4938 3.67504 47.1142 5.09519 48.4106 6.86896C49.707 8.64272 50.3552 10.6309 50.3552 12.8336C50.3552 15.2219 49.5558 17.4129 47.9569 19.407C46.358 21.401 44.1902 22.8965 41.4534 23.8935C45.3137 24.7978 48.281 26.3397 50.3552 28.5192C52.4294 30.6987 53.4665 33.2608 53.4665 36.2055C53.4665 38.5241 52.7967 40.779 51.4571 42.9701C50.1175 45.1612 48.2882 46.9118 45.9691 48.2218C43.65 49.5319 40.7908 50.3376 37.3914 50.639C35.2595 50.8245 30.1172 50.9404 21.9644 50.9868H0.401168V0ZM13.1922 8.48621V20.2765H21.5755C26.5594 20.2765 29.6563 20.2185 30.8662 20.1026C33.0557 19.8939 34.777 19.2853 36.0302 18.2766C37.2833 17.268 37.9099 15.9406 37.9099 14.2944C37.9099 12.7177 37.3698 11.4367 36.2894 10.4513C35.2091 9.46583 33.603 8.86878 31.4712 8.6601C30.2036 8.54417 26.5594 8.48621 20.5384 8.48621H13.1922ZM13.1922 28.7627V42.3963H25.0325C29.6419 42.3963 32.5659 42.2919 33.8047 42.0832C35.7061 41.805 37.2545 41.1268 38.4501 40.0486C39.6456 38.9705 40.2434 37.5271 40.2434 35.7186C40.2434 34.1883 39.7825 32.8899 38.8606 31.8233C37.9387 30.7567 36.6063 29.98 34.8634 29.493C33.1205 29.0061 29.3394 28.7627 23.52 28.7627H13.1922ZM64.2697 50.9868V0H84.7958C92.5742 0 97.6445 0.255047 100.007 0.76515C103.637 1.5303 106.676 3.19391 109.125 5.75601C111.573 8.31812 112.798 11.6279 112.798 15.6856C112.798 18.8157 112.092 21.4474 110.68 23.5805C109.269 25.7137 107.475 27.3889 105.3 28.6062C103.125 29.8235 100.914 30.6292 98.6672 31.0233C95.6134 31.5103 91.1914 31.7537 85.4008 31.7537H77.0607V50.9868H64.2697ZM77.0607 8.62533V23.0936H84.0612C89.1027 23.0936 92.4733 22.827 94.173 22.2937C95.8727 21.7604 97.2051 20.9257 98.1702 19.7896C99.1353 18.6534 99.6179 17.3318 99.6179 15.8247C99.6179 13.9698 98.9409 12.4395 97.5868 11.2338C96.2328 10.0281 94.5187 9.27454 92.4445 8.97312C90.9177 8.74126 87.8496 8.62533 83.2402 8.62533H77.0607Z" fill="#F5F5F5"/>
<path d="M111.804 50.9868V44.0629H122.572V50.9868H111.804Z" fill="#F5F5F5"/>
<path d="M-3.05176e-05 58.6327H6.4854C7.76921 58.6327 8.72652 58.6865 9.35736 58.794C9.98819 58.9016 10.5526 59.1259 11.0506 59.4671C11.5487 59.8083 11.9637 60.2626 12.2957 60.8301C12.6277 61.3975 12.7937 62.0335 12.7937 62.7381C12.7937 63.5021 12.589 64.203 12.1795 64.8409C11.77 65.4788 11.2148 65.9572 10.5139 66.2762C11.5026 66.5654 12.2625 67.0587 12.7937 67.7559C13.325 68.4531 13.5906 69.2727 13.5906 70.2147C13.5906 70.9564 13.419 71.6777 13.076 72.3787C12.7329 73.0796 12.2644 73.6396 11.6704 74.0587C11.0765 74.4777 10.3442 74.7355 9.47356 74.8319C8.92757 74.8913 7.61058 74.9283 5.52254 74.9432H-3.05176e-05V58.6327ZM3.27588 61.3474V65.1191H5.42294C6.69937 65.1191 7.49252 65.1005 7.8024 65.0634C8.36315 64.9967 8.80399 64.802 9.12494 64.4793C9.44589 64.1567 9.60637 63.732 9.60637 63.2054C9.60637 62.701 9.46803 62.2912 9.19135 61.976C8.91466 61.6608 8.50333 61.4698 7.95734 61.403C7.6327 61.3659 6.69937 61.3474 5.15732 61.3474H3.27588ZM3.27588 67.8338V72.1951H6.30832C7.48883 72.1951 8.23771 72.1617 8.55498 72.095C9.04194 72.006 9.43851 71.789 9.74471 71.4441C10.0509 71.0992 10.204 70.6375 10.204 70.0589C10.204 69.5694 10.086 69.154 9.84985 68.8128C9.61375 68.4716 9.27251 68.2232 8.82613 68.0674C8.37974 67.9117 7.41137 67.8338 5.92096 67.8338H3.27588ZM15.6934 66.8881C15.6934 65.2266 15.9405 63.8322 16.4349 62.7048C16.8038 61.874 17.3073 61.1286 17.9456 60.4685C18.5838 59.8083 19.2829 59.3188 20.0428 58.9999C21.0536 58.5697 22.2194 58.3546 23.5401 58.3546C25.9306 58.3546 27.8434 59.1 29.2785 60.5908C30.7135 62.0817 31.431 64.1548 31.431 66.8102C31.431 69.4433 30.7191 71.5034 29.2951 72.9906C27.8711 74.4778 25.9675 75.2213 23.5843 75.2213C21.1717 75.2213 19.2534 74.4815 17.8294 73.0017C16.4054 71.522 15.6934 69.4841 15.6934 66.8881ZM19.0689 66.7768C19.0689 68.6237 19.4931 70.0237 20.3416 70.9768C21.1901 71.9299 22.2673 72.4065 23.5733 72.4065C24.8792 72.4065 25.9509 71.9336 26.7883 70.9879C27.6257 70.0422 28.0445 68.6237 28.0445 66.7323C28.0445 64.8632 27.6368 63.4687 26.8215 62.549C26.0062 61.6293 24.9235 61.1694 23.5733 61.1694C22.2231 61.1694 21.1348 61.6348 20.3084 62.5657C19.4821 63.4966 19.0689 64.9002 19.0689 66.7768ZM34.0208 74.9432V58.6327H37.2082L43.8485 69.5249V58.6327H46.892V74.9432H43.6051L37.0643 64.3069V74.9432H34.0208ZM50.3561 74.9432V58.6327H55.6131C57.6052 58.6327 58.9037 58.7143 59.5087 58.8775C60.4384 59.1222 61.2168 59.6544 61.8439 60.474C62.4711 61.2936 62.7846 62.3524 62.7846 63.6505C62.7846 64.6518 62.6039 65.4936 62.2424 66.176C61.8808 66.8584 61.4215 67.3943 60.8645 67.7837C60.3074 68.1731 59.7412 68.4309 59.1656 68.5569C58.3836 68.7127 57.251 68.7906 55.768 68.7906H53.632V74.9432H50.3561ZM53.632 61.3919V66.0203H55.4249C56.7161 66.0203 57.5793 65.935 58.0147 65.7644C58.45 65.5938 58.7912 65.3267 59.0384 64.9633C59.2855 64.5999 59.4091 64.1771 59.4091 63.695C59.4091 63.1016 59.2357 62.612 58.889 62.2263C58.5422 61.8406 58.1032 61.5996 57.572 61.5032C57.1809 61.429 56.3951 61.3919 55.2146 61.3919H53.632ZM65.4851 74.9432V58.6327H72.38C74.1139 58.6327 75.3737 58.7792 76.1595 59.0722C76.9452 59.3652 77.5742 59.8862 78.0464 60.6353C78.5186 61.3845 78.7547 62.2412 78.7547 63.2054C78.7547 64.4293 78.3969 65.4399 77.6812 66.2372C76.9655 67.0346 75.8957 67.5371 74.4717 67.7448C75.18 68.1601 75.7647 68.6163 76.2259 69.1132C76.687 69.6102 77.3086 70.4928 78.0907 71.7612L80.0717 74.9432H76.1539L73.7855 71.394C72.9444 70.1257 72.3689 69.3265 72.059 68.9964C71.7491 68.6663 71.4208 68.4401 71.074 68.3177C70.7273 68.1954 70.1776 68.1342 69.425 68.1342H68.761V74.9432H65.4851ZM68.761 65.5307H71.1847C72.7563 65.5307 73.7376 65.464 74.1286 65.3305C74.5197 65.1969 74.8258 64.967 75.0472 64.6407C75.2685 64.3143 75.3792 63.9063 75.3792 63.4168C75.3792 62.8679 75.2335 62.4248 74.9421 62.0873C74.6506 61.7498 74.2393 61.5365 73.7081 61.4475C73.4424 61.4105 72.6456 61.3919 71.3175 61.3919H68.761V65.5307ZM81.8425 74.9432V58.6327H93.8726V61.3919H85.1184V65.0078H93.2639V67.7559H85.1184V72.1951H94.1825V74.9432H81.8425ZM96.1304 69.6362L99.3177 69.3246C99.5096 70.4001 99.8988 71.1901 100.485 71.6944C101.072 72.1988 101.863 72.451 102.859 72.451C103.914 72.451 104.709 72.2266 105.244 71.7779C105.779 71.3291 106.047 70.8044 106.047 70.2036C106.047 69.8179 105.934 69.4897 105.709 69.2189C105.484 68.9482 105.091 68.7127 104.53 68.5124C104.147 68.3789 103.272 68.1416 101.907 67.8004C100.151 67.3628 98.9193 66.825 98.211 66.1871C97.215 65.2897 96.7169 64.1956 96.7169 62.905C96.7169 62.0743 96.9512 61.2973 97.4197 60.5742C97.8882 59.851 98.5633 59.3003 99.445 58.922C100.327 58.5437 101.391 58.3546 102.638 58.3546C104.674 58.3546 106.207 58.8033 107.236 59.7008C108.266 60.5983 108.806 61.7961 108.858 63.2944L105.582 63.4391C105.442 62.6009 105.141 61.9983 104.68 61.6311C104.219 61.264 103.527 61.0804 102.605 61.0804C101.653 61.0804 100.908 61.2769 100.369 61.6701C100.022 61.9222 99.849 62.2597 99.849 62.6825C99.849 63.0682 100.011 63.3983 100.336 63.6727C100.749 64.0213 101.753 64.3848 103.346 64.763C104.94 65.1413 106.119 65.5326 106.882 65.9368C107.646 66.3411 108.243 66.8936 108.675 67.5946C109.107 68.2955 109.323 69.1614 109.323 70.1924C109.323 71.127 109.064 72.0022 108.548 72.8181C108.031 73.634 107.301 74.2404 106.357 74.6372C105.412 75.034 104.235 75.2325 102.826 75.2325C100.775 75.2325 99.1997 74.7559 98.1003 73.8028C97.001 72.8497 96.3443 71.4608 96.1304 69.6362ZM111.248 69.6362L114.436 69.3246C114.627 70.4001 115.017 71.1901 115.603 71.6944C116.19 72.1988 116.981 72.451 117.977 72.451C119.032 72.451 119.827 72.2266 120.362 71.7779C120.897 71.3291 121.165 70.8044 121.165 70.2036C121.165 69.8179 121.052 69.4897 120.827 69.2189C120.602 68.9482 120.209 68.7127 119.648 68.5124C119.265 68.3789 118.39 68.1416 117.025 67.8004C115.269 67.3628 114.037 66.825 113.329 66.1871C112.333 65.2897 111.835 64.1956 111.835 62.905C111.835 62.0743 112.069 61.2973 112.538 60.5742C113.006 59.851 113.681 59.3003 114.563 58.922C115.445 58.5437 116.509 58.3546 117.756 58.3546C119.792 58.3546 121.325 58.8033 122.354 59.7008C123.384 60.5983 123.924 61.7961 123.976 63.2944L120.7 63.4391C120.56 62.6009 120.259 61.9983 119.798 61.6311C119.337 61.264 118.645 61.0804 117.723 61.0804C116.771 61.0804 116.026 61.2769 115.487 61.6701C115.14 61.9222 114.967 62.2597 114.967 62.6825C114.967 63.0682 115.129 63.3983 115.454 63.6727C115.867 64.0213 116.87 64.3848 118.464 64.763C120.058 65.1413 121.236 65.5326 122 65.9368C122.764 66.3411 123.361 66.8936 123.793 67.5946C124.225 68.2955 124.44 69.1614 124.44 70.1924C124.44 71.127 124.182 72.0022 123.666 72.8181C123.149 73.634 122.419 74.2404 121.474 74.6372C120.53 75.034 119.353 75.2325 117.944 75.2325C115.893 75.2325 114.318 74.7559 113.218 73.8028C112.119 72.8497 111.462 71.4608 111.248 69.6362Z" fill="#F5F5F5"/>
</svg>
