<svg width="279" height="67" viewBox="0 0 279 67" fill="none" xmlns="http://www.w3.org/2000/svg">
<path d="M51.5203 11.5829H78.507V16.1185H56.4087V27.3566H76.8439V31.6402H56.4087V44.1887H78.885V48.5983H51.5203V11.5829Z" fill="#F5F5F5"/>
<path d="M88.8763 21.6116V39.5271C88.8763 40.9046 89.0947 42.0301 89.5315 42.9036C90.3378 44.5163 91.8413 45.3226 94.0419 45.3226C97.2 45.3226 99.3502 43.9115 100.492 41.0894C101.114 39.5775 101.425 37.5029 101.425 34.8655V21.6116H105.96V48.5983H101.677L101.727 44.617C101.139 45.6417 100.408 46.5069 99.5349 47.2124C97.8047 48.6235 95.7049 49.329 93.2355 49.329C89.3887 49.329 86.7681 48.0439 85.3739 45.4738C84.6179 44.0963 84.24 42.2569 84.24 39.9555V21.6116H88.8763Z" fill="#F5F5F5"/>
<path d="M112.676 21.6116H116.985V26.2731C117.338 25.366 118.203 24.2657 119.58 22.9723C120.958 21.662 122.545 21.0068 124.343 21.0068C124.427 21.0068 124.569 21.0152 124.771 21.032C124.972 21.0488 125.317 21.0824 125.804 21.1328V25.9204C125.535 25.87 125.283 25.8364 125.048 25.8196C124.83 25.8028 124.586 25.7944 124.317 25.7944C122.033 25.7944 120.277 26.5335 119.051 28.0118C117.825 29.4733 117.212 31.1615 117.212 33.0765V48.5983H112.676V21.6116Z" fill="#F5F5F5"/>
<path d="M139.928 45.6753C142.935 45.6753 144.993 44.5414 146.101 42.2737C147.227 39.9891 147.789 37.4525 147.789 34.664C147.789 32.1442 147.386 30.0948 146.58 28.5157C145.303 26.0296 143.103 24.7865 139.978 24.7865C137.206 24.7865 135.191 25.8448 133.931 27.9614C132.671 30.078 132.041 32.6314 132.041 35.6215C132.041 38.494 132.671 40.8878 133.931 42.8028C135.191 44.7178 137.19 45.6753 139.928 45.6753ZM140.104 20.8305C143.581 20.8305 146.521 21.9895 148.923 24.3077C151.326 26.6259 152.527 30.036 152.527 34.538C152.527 38.8888 151.468 42.4836 149.352 45.3226C147.235 48.1615 143.951 49.581 139.499 49.581C135.787 49.581 132.839 48.3295 130.655 45.8265C128.471 43.3068 127.379 39.9303 127.379 35.6971C127.379 31.1615 128.53 27.5498 130.831 24.8621C133.133 22.1743 136.224 20.8305 140.104 20.8305Z" fill="#F5F5F5"/>
<path d="M186.091 44.3147C187.788 44.3147 189.182 44.1383 190.274 43.7855C192.222 43.1304 193.818 41.8705 195.061 40.0059C196.052 38.5108 196.766 36.5958 197.203 34.2608C197.455 32.8665 197.581 31.5731 197.581 30.3804C197.581 25.7944 196.665 22.2331 194.834 19.6966C193.02 17.16 190.089 15.8917 186.04 15.8917H177.146V44.3147H186.091ZM172.106 11.5829H187.099C192.189 11.5829 196.136 13.3887 198.942 17.0004C201.445 20.2593 202.696 24.4337 202.696 29.5236C202.696 33.4545 201.957 37.0074 200.479 40.1823C197.875 45.7929 193.398 48.5983 187.048 48.5983H172.106V11.5829Z" fill="#F5F5F5"/>
<path d="M208.177 21.6116H212.486V26.2731C212.839 25.366 213.704 24.2657 215.081 22.9723C216.459 21.662 218.046 21.0068 219.844 21.0068C219.928 21.0068 220.07 21.0152 220.272 21.032C220.474 21.0488 220.818 21.0824 221.305 21.1328V25.9204C221.036 25.87 220.784 25.8364 220.549 25.8196C220.331 25.8028 220.087 25.7944 219.818 25.7944C217.534 25.7944 215.778 26.5335 214.552 28.0118C213.326 29.4733 212.713 31.1615 212.713 33.0765V48.5983H208.177V21.6116Z" fill="#F5F5F5"/>
<path d="M235.429 45.6753C238.436 45.6753 240.494 44.5414 241.602 42.2737C242.728 39.9891 243.291 37.4525 243.291 34.664C243.291 32.1442 242.887 30.0948 242.081 28.5157C240.804 26.0296 238.604 24.7865 235.479 24.7865C232.708 24.7865 230.692 25.8448 229.432 27.9614C228.172 30.078 227.542 32.6314 227.542 35.6215C227.542 38.494 228.172 40.8878 229.432 42.8028C230.692 44.7178 232.691 45.6753 235.429 45.6753ZM235.605 20.8305C239.083 20.8305 242.022 21.9895 244.424 24.3077C246.827 26.6259 248.028 30.036 248.028 34.538C248.028 38.8888 246.969 42.4836 244.853 45.3226C242.736 48.1615 239.452 49.581 235.001 49.581C231.288 49.581 228.34 48.3295 226.156 45.8265C223.972 43.3068 222.88 39.9303 222.88 35.6971C222.88 31.1615 224.031 27.5498 226.333 24.8621C228.634 22.1743 231.725 20.8305 235.605 20.8305Z" fill="#F5F5F5"/>
<path d="M264.318 45.5494C266.435 45.5494 268.191 44.6674 269.585 42.9036C270.996 41.123 271.701 38.4688 271.701 34.9411C271.701 32.7909 271.391 30.9431 270.769 29.3977C269.593 26.4243 267.443 24.9377 264.318 24.9377C261.177 24.9377 259.027 26.5083 257.868 29.6496C257.246 31.3295 256.936 33.4629 256.936 36.0498C256.936 38.1328 257.246 39.9051 257.868 41.3665C259.044 44.1551 261.194 45.5494 264.318 45.5494ZM252.576 21.7376H256.986V25.3156C257.893 24.0894 258.884 23.1402 259.959 22.4683C261.488 21.4604 263.285 20.9564 265.352 20.9564C268.409 20.9564 271.004 22.1323 273.138 24.4841C275.271 26.8191 276.338 30.162 276.338 34.5128C276.338 40.3922 274.801 44.5918 271.727 47.1116C269.778 48.7075 267.51 49.5054 264.923 49.5054C262.891 49.5054 261.186 49.0602 259.808 48.1699C259.002 47.666 258.103 46.8008 257.112 45.5746V59.3577H252.576V21.7376Z" fill="#F5F5F5"/>
<path d="M34.4291 0.322815H45.374V66.9097H34.4291V0.322815Z" fill="#F5F5F5"/>
<path d="M0.499939 54.1745H155.188V66.9097H0.499939V54.1745Z" fill="#F5F5F5"/>
<path d="M155.188 54.1745H247.489V58.177H155.188V54.1745Z" fill="#F5F5F5"/>
<path d="M263.177 54.1745H278.5V58.177H263.177V54.1745Z" fill="#F5F5F5"/>
</svg>
