<svg width="258" height="65" viewBox="0 0 258 65" fill="none" xmlns="http://www.w3.org/2000/svg">
<path d="M204.708 1.30392V63.9285H190.115V37.4517H164.707V63.9285H150.115V1.30392H164.707V27.4799H190.115V1.30392H204.708Z" fill="#F5F5F5"/>
<path d="M235.682 54.5585C237.17 54.5585 238.457 54.3292 239.545 53.8707C240.632 53.4123 241.519 52.7962 242.206 52.0225C242.921 51.2202 243.436 50.2889 243.751 49.2287C244.094 48.1398 244.266 46.9793 244.266 45.7472C244.266 44.4004 244.123 43.1683 243.837 42.0507C243.551 40.9332 243.078 39.9876 242.42 39.2139C241.762 38.4116 240.875 37.7955 239.759 37.3657C238.672 36.9072 237.313 36.678 235.682 36.678C234.051 36.678 232.678 36.9072 231.562 37.3657C230.475 37.7955 229.602 38.4116 228.944 39.2139C228.286 39.9876 227.814 40.9332 227.527 42.0507C227.241 43.1683 227.098 44.4004 227.098 45.7472C227.098 46.9793 227.256 48.1398 227.57 49.2287C227.914 50.2889 228.429 51.2202 229.115 52.0225C229.831 52.7962 230.718 53.4123 231.776 53.8707C232.864 54.3292 234.166 54.5585 235.682 54.5585ZM235.682 10.3301C234.337 10.3301 233.207 10.545 232.291 10.9748C231.376 11.4047 230.618 11.9778 230.017 12.6941C229.444 13.3818 229.03 14.1842 228.772 15.1011C228.515 16.018 228.386 16.9636 228.386 17.9379C228.386 19.0268 228.486 20.087 228.686 21.1186C228.887 22.1501 229.258 23.0671 229.802 23.8694C230.346 24.6717 231.09 25.3165 232.034 25.8036C232.978 26.2907 234.194 26.5343 235.682 26.5343C237.17 26.5343 238.386 26.2907 239.33 25.8036C240.274 25.3165 241.018 24.6717 241.562 23.8694C242.106 23.0671 242.478 22.1501 242.678 21.1186C242.878 20.087 242.978 19.0268 242.978 17.9379C242.978 16.9636 242.85 16.018 242.592 15.1011C242.334 14.1842 241.905 13.3818 241.304 12.6941C240.732 11.9778 239.974 11.4047 239.03 10.9748C238.114 10.545 236.998 10.3301 235.682 10.3301ZM247.485 31.2623C249.345 31.9213 250.933 32.738 252.249 33.7123C253.594 34.6865 254.681 35.804 255.511 37.0648C256.369 38.3256 256.999 39.7154 257.399 41.2341C257.8 42.7241 258 44.3144 258 46.0051C258 48.8132 257.456 51.3635 256.369 53.6558C255.31 55.9482 253.794 57.911 251.82 59.5444C249.874 61.149 247.528 62.3955 244.781 63.2838C242.034 64.1721 239.001 64.6162 235.682 64.6162C232.363 64.6162 229.33 64.1721 226.583 63.2838C223.836 62.3955 221.476 61.149 219.502 59.5444C217.556 57.911 216.039 55.9482 214.952 53.6558C213.893 51.3635 213.364 48.8132 213.364 46.0051C213.364 44.3144 213.564 42.7241 213.965 41.2341C214.366 39.7154 214.981 38.3256 215.811 37.0648C216.669 35.804 217.756 34.6865 219.072 33.7123C220.417 32.738 222.019 31.9213 223.879 31.2623C221.047 29.9728 218.929 28.1962 217.527 25.9325C216.125 23.6402 215.424 20.8893 215.424 17.68C215.424 15.2444 215.925 12.995 216.926 10.9319C217.928 8.84007 219.33 7.03483 221.132 5.51614C222.935 3.99745 225.067 2.80829 227.527 1.94865C230.017 1.06036 232.735 0.616211 235.682 0.616211C238.629 0.616211 241.333 1.06036 243.794 1.94865C246.283 2.80829 248.429 3.99745 250.232 5.51614C252.034 7.03483 253.436 8.84007 254.438 10.9319C255.439 12.995 255.94 15.2444 255.94 17.68C255.94 20.8893 255.239 23.6402 253.837 25.9325C252.435 28.1962 250.317 29.9728 247.485 31.2623Z" fill="#F5F5F5"/>
<path d="M78.4127 19.6469V7.90701H82.4509C83.3625 7.90701 84.0582 7.96307 84.538 8.07518C85.2097 8.23 85.7827 8.51029 86.2572 8.91603C86.8756 9.43923 87.3367 10.1092 87.6406 10.9261C87.9498 11.7376 88.1044 12.6665 88.1044 13.7129C88.1044 14.6045 88.0004 15.3946 87.7925 16.0833C87.5846 16.772 87.3181 17.3432 86.9929 17.797C86.6677 18.2455 86.3105 18.6005 85.9214 18.8621C85.5375 19.1184 85.0711 19.3132 84.522 19.4467C83.9782 19.5802 83.3518 19.6469 82.6428 19.6469H78.4127ZM79.964 18.2615H82.4669C83.2399 18.2615 83.845 18.1894 84.2821 18.0453C84.7246 17.9011 85.0764 17.6983 85.3376 17.4367C85.7055 17.0683 85.9907 16.5744 86.1932 15.9552C86.4011 15.3305 86.5051 14.5751 86.5051 13.6889C86.5051 12.461 86.3025 11.5187 85.8974 10.862C85.4975 10.2 85.0098 9.75688 84.434 9.53265C84.0182 9.37249 83.3492 9.29241 82.4269 9.29241H79.964V18.2615Z" fill="#F5F5F5"/>
<path d="M90.2794 19.6469V7.90701H98.7556V9.29241H91.8307V12.8881H98.3158V14.2654H91.8307V18.2615H99.0275V19.6469H90.2794Z" fill="#F5F5F5"/>
<path d="M100.643 15.8751L102.106 15.7469C102.175 16.3342 102.335 16.8174 102.586 17.1964C102.842 17.5701 103.236 17.8744 103.769 18.1093C104.302 18.3389 104.902 18.4537 105.569 18.4537C106.16 18.4537 106.683 18.3656 107.136 18.1894C107.589 18.0132 107.925 17.773 108.143 17.4687C108.367 17.159 108.479 16.8227 108.479 16.4597C108.479 16.0913 108.373 15.771 108.159 15.4987C107.946 15.2211 107.594 14.9888 107.104 14.802C106.789 14.6792 106.094 14.4897 105.017 14.2334C103.94 13.9718 103.186 13.7262 102.754 13.4967C102.194 13.203 101.776 12.84 101.498 12.4076C101.226 11.9698 101.091 11.4813 101.091 10.9421C101.091 10.3495 101.258 9.79692 101.594 9.2844C101.93 8.76655 102.421 8.37415 103.066 8.10721C103.711 7.84028 104.428 7.70681 105.217 7.70681C106.086 7.70681 106.851 7.84828 107.512 8.13124C108.178 8.40885 108.69 8.81993 109.047 9.36448C109.404 9.90904 109.596 10.5257 109.623 11.2144L108.135 11.3265C108.055 10.5844 107.784 10.0238 107.32 9.64477C106.861 9.26572 106.182 9.07619 105.281 9.07619C104.342 9.07619 103.657 9.2497 103.226 9.59672C102.799 9.9384 102.586 10.3522 102.586 10.838C102.586 11.2597 102.738 11.6068 103.042 11.879C103.34 12.1513 104.119 12.4316 105.377 12.7199C106.64 13.0028 107.506 13.2511 107.975 13.4646C108.658 13.7796 109.162 14.18 109.487 14.6658C109.812 15.1463 109.975 15.7016 109.975 16.3315C109.975 16.9562 109.796 17.5461 109.439 18.1013C109.082 18.6512 108.567 19.081 107.895 19.3906C107.229 19.6949 106.477 19.8471 105.64 19.8471C104.58 19.8471 103.689 19.6923 102.97 19.3826C102.255 19.073 101.693 18.6085 101.282 17.9892C100.877 17.3646 100.664 16.6599 100.643 15.8751Z" fill="#F5F5F5"/>
<path d="M112.357 19.6469V7.90701H113.909V19.6469H112.357Z" fill="#F5F5F5"/>
<path d="M122.137 15.0422V13.6648L127.103 13.6568V18.0132C126.341 18.6219 125.554 19.081 124.744 19.3906C123.934 19.6949 123.102 19.8471 122.249 19.8471C121.098 19.8471 120.05 19.6015 119.106 19.1103C118.168 18.6138 117.459 17.8985 116.979 16.9642C116.5 16.0299 116.26 14.9862 116.26 13.833C116.26 12.6905 116.497 11.6254 116.971 10.6378C117.451 9.64477 118.139 8.90802 119.034 8.42754C119.93 7.94705 120.962 7.70681 122.129 7.70681C122.977 7.70681 123.742 7.84561 124.424 8.12323C125.112 8.3955 125.65 8.77722 126.039 9.26839C126.428 9.75955 126.724 10.4002 126.927 11.1903L125.528 11.5747C125.352 10.9768 125.133 10.507 124.872 10.1653C124.611 9.82362 124.237 9.55134 123.752 9.34847C123.267 9.14026 122.729 9.03615 122.137 9.03615C121.428 9.03615 120.815 9.1456 120.298 9.36448C119.781 9.57803 119.362 9.86099 119.042 10.2133C118.728 10.5657 118.483 10.9528 118.307 11.3745C118.008 12.1006 117.859 12.8881 117.859 13.7369C117.859 14.7833 118.038 15.6589 118.395 16.3636C118.757 17.0683 119.282 17.5915 119.97 17.9332C120.658 18.2748 121.388 18.4457 122.161 18.4457C122.833 18.4457 123.488 18.3175 124.128 18.0613C124.768 17.7997 125.253 17.5221 125.584 17.2284V15.0422H122.137Z" fill="#F5F5F5"/>
<path d="M129.382 19.6469V7.90701H130.973L137.13 17.1243V7.90701H138.618V19.6469H137.026L130.869 10.4216V19.6469H129.382Z" fill="#F5F5F5"/>
<path d="M26.548 38.5076V26.7677H35.0242V28.1531H28.0993V31.7487H34.5844V33.1261H28.0993V37.1222H35.2961V38.5076H26.548Z" fill="#F5F5F5"/>
<path d="M37.4231 38.5076V26.7677H39.0144L45.1717 35.985V26.7677H46.659V38.5076H45.0677L38.9105 29.2822V38.5076H37.4231Z" fill="#F5F5F5"/>
<path d="M54.7594 33.9029V32.5255L59.7251 32.5175V36.8739C58.9628 37.4825 58.1765 37.9417 57.3662 38.2513C56.5559 38.5556 55.7243 38.7078 54.8713 38.7078C53.7198 38.7078 52.6723 38.4622 51.7287 37.971C50.7905 37.4745 50.0815 36.7591 49.6017 35.8249C49.1219 34.8906 48.882 33.8469 48.882 32.6937C48.882 31.5512 49.1192 30.4861 49.5937 29.4985C50.0735 28.5055 50.7612 27.7687 51.6568 27.2882C52.5524 26.8077 53.5839 26.5675 54.7514 26.5675C55.599 26.5675 56.364 26.7063 57.0463 26.9839C57.734 27.2562 58.2724 27.6379 58.6616 28.1291C59.0508 28.6202 59.3466 29.2609 59.5492 30.051L58.1498 30.4354C57.9739 29.8375 57.7553 29.3677 57.4941 29.026C57.2329 28.6843 56.8597 28.412 56.3746 28.2092C55.8895 28.0009 55.3511 27.8968 54.7594 27.8968C54.0503 27.8968 53.4373 28.0063 52.9202 28.2252C52.4031 28.4387 51.9846 28.7217 51.6647 29.074C51.3502 29.4264 51.105 29.8134 50.9291 30.2352C50.6305 30.9613 50.4813 31.7487 50.4813 32.5976C50.4813 33.644 50.6599 34.5195 51.017 35.2243C51.3795 35.929 51.9046 36.4522 52.5923 36.7938C53.28 37.1355 54.0104 37.3064 54.7833 37.3064C55.455 37.3064 56.1107 37.1782 56.7505 36.922C57.3902 36.6604 57.8753 36.3828 58.2058 36.0891V33.9029H54.7594Z" fill="#F5F5F5"/>
<path d="M62.284 38.5076V26.7677H63.8353V38.5076H62.284Z" fill="#F5F5F5"/>
<path d="M66.562 38.5076V26.7677H68.1533L74.3106 35.985V26.7677H75.7979V38.5076H74.2066L68.0494 29.2822V38.5076H66.562Z" fill="#F5F5F5"/>
<path d="M78.4447 38.5076V26.7677H86.9209V28.1531H79.996V31.7487H86.4811V33.1261H79.996V37.1222H87.1928V38.5076H78.4447Z" fill="#F5F5F5"/>
<path d="M89.3678 38.5076V26.7677H97.844V28.1531H90.9191V31.7487H97.4042V33.1261H90.9191V37.1222H98.1159V38.5076H89.3678Z" fill="#F5F5F5"/>
<path d="M100.283 38.5076V26.7677H105.481C106.525 26.7677 107.32 26.8745 107.863 27.088C108.407 27.2962 108.842 27.6673 109.167 28.2011C109.492 28.735 109.655 29.325 109.655 29.9709C109.655 30.8038 109.385 31.5058 108.847 32.0771C108.309 32.6483 107.477 33.0113 106.352 33.1662C106.763 33.3637 107.075 33.5586 107.288 33.7508C107.741 34.1672 108.17 34.6877 108.575 35.3123L110.614 38.5076H108.663L107.112 36.0651C106.659 35.3604 106.286 34.8212 105.992 34.4475C105.699 34.0738 105.435 33.8122 105.201 33.6627C104.971 33.5132 104.737 33.4091 104.497 33.3504C104.321 33.313 104.033 33.2943 103.633 33.2943H101.834V38.5076H100.283ZM101.834 31.9489H105.169C105.878 31.9489 106.432 31.8769 106.832 31.7327C107.232 31.5832 107.536 31.3483 107.744 31.028C107.951 30.7023 108.055 30.35 108.055 29.9709C108.055 29.4157 107.853 28.9592 107.448 28.6016C107.048 28.2439 106.413 28.065 105.545 28.065H101.834V31.9489Z" fill="#F5F5F5"/>
<path d="M112.357 38.5076V26.7677H113.909V38.5076H112.357Z" fill="#F5F5F5"/>
<path d="M116.636 38.5076V26.7677H118.227L124.384 35.985V26.7677H125.871V38.5076H124.28L118.123 29.2822V38.5076H116.636Z" fill="#F5F5F5"/>
<path d="M133.972 33.9029V32.5255L138.938 32.5175V36.8739C138.175 37.4825 137.389 37.9417 136.579 38.2513C135.768 38.5556 134.937 38.7078 134.084 38.7078C132.932 38.7078 131.885 38.4622 130.941 37.971C130.003 37.4745 129.294 36.7591 128.814 35.8249C128.334 34.8906 128.094 33.8469 128.094 32.6937C128.094 31.5512 128.332 30.4861 128.806 29.4985C129.286 28.5055 129.974 27.7687 130.869 27.2882C131.765 26.8077 132.796 26.5675 133.964 26.5675C134.811 26.5675 135.576 26.7063 136.259 26.9839C136.946 27.2562 137.485 27.6379 137.874 28.1291C138.263 28.6202 138.559 29.2609 138.762 30.051L137.362 30.4354C137.186 29.8375 136.968 29.3677 136.707 29.026C136.445 28.6843 136.072 28.412 135.587 28.2092C135.102 28.0009 134.563 27.8968 133.972 27.8968C133.263 27.8968 132.65 28.0063 132.133 28.2252C131.615 28.4387 131.197 28.7217 130.877 29.074C130.563 29.4264 130.317 29.8134 130.141 30.2352C129.843 30.9613 129.694 31.7487 129.694 32.5976C129.694 33.644 129.872 34.5195 130.229 35.2243C130.592 35.929 131.117 36.4522 131.805 36.7938C132.492 37.1355 133.223 37.3064 133.996 37.3064C134.667 37.3064 135.323 37.1782 135.963 36.922C136.603 36.6604 137.088 36.3828 137.418 36.0891V33.9029H133.972Z" fill="#F5F5F5"/>
<path d="M8.81201 53.2521L10.3633 53.6445C10.0381 54.9205 9.45172 55.8948 8.6041 56.5675C7.76181 57.2348 6.73028 57.5685 5.50949 57.5685C4.24606 57.5685 3.21719 57.3122 2.42288 56.7997C1.6339 56.2818 1.03151 55.5344 0.615693 54.5574C0.205211 53.5804 -3.05176e-05 52.5314 -3.05176e-05 51.4102C-3.05176e-05 50.1877 0.231865 49.1226 0.695657 48.215C1.16478 47.3021 1.82848 46.6107 2.68676 46.1409C3.55037 45.6658 4.49928 45.4282 5.53348 45.4282C6.70629 45.4282 7.69251 45.7272 8.49215 46.3251C9.29179 46.923 9.84888 47.7639 10.1634 48.8476L8.63609 49.208C8.36421 48.3538 7.96972 47.7319 7.45262 47.3421C6.93552 46.9524 6.28514 46.7575 5.5015 46.7575C4.60057 46.7575 3.84624 46.9737 3.23851 47.4062C2.63612 47.8386 2.21231 48.4205 1.96709 49.152C1.72186 49.878 1.59925 50.6281 1.59925 51.4022C1.59925 52.4006 1.74319 53.2735 2.03106 54.0209C2.32426 54.763 2.77739 55.3182 3.39045 55.6866C4.0035 56.0549 4.66721 56.2391 5.38155 56.2391C6.25049 56.2391 6.98616 55.9882 7.58856 55.4864C8.19095 54.9845 8.59877 54.2398 8.81201 53.2521Z" fill="#F5F5F5"/>
<path d="M11.8107 51.6505C11.8107 49.7018 12.3331 48.1776 13.378 47.0779C14.4228 45.9727 15.7715 45.4202 17.4241 45.4202C18.5063 45.4202 19.4819 45.6791 20.3508 46.197C21.2198 46.7148 21.8808 47.4382 22.3339 48.3672C22.7924 49.2908 23.0216 50.3398 23.0216 51.5143C23.0216 52.7049 22.7817 53.77 22.3019 54.7096C21.8222 55.6492 21.1425 56.3619 20.2629 56.8477C19.3833 57.3282 18.4344 57.5685 17.4161 57.5685C16.3126 57.5685 15.3264 57.3015 14.4575 56.7677C13.5885 56.2338 12.9302 55.505 12.4824 54.5814C12.0346 53.6578 11.8107 52.6809 11.8107 51.6505ZM13.4099 51.6745C13.4099 53.0893 13.7884 54.2051 14.5454 55.0219C15.3078 55.8334 16.262 56.2391 17.4081 56.2391C18.5756 56.2391 19.5352 55.828 20.2869 55.0059C21.0438 54.1837 21.4223 53.0172 21.4223 51.5063C21.4223 50.5507 21.2597 49.7179 20.9346 49.0078C20.6147 48.2924 20.1429 47.7399 19.5192 47.3501C18.9008 46.9551 18.2051 46.7575 17.4321 46.7575C16.334 46.7575 15.3877 47.1366 14.5934 47.8947C13.8044 48.6474 13.4099 49.9074 13.4099 51.6745Z" fill="#F5F5F5"/>
<path d="M24.9807 57.3683V45.6284H27.3157L30.0904 53.9408C30.3463 54.7149 30.5329 55.2942 30.6502 55.6786C30.7835 55.2515 30.9914 54.6242 31.2739 53.7967L34.0807 45.6284H36.1677V57.3683H34.6724V47.5423L31.2659 57.3683H29.8665L26.4761 47.3742V57.3683H24.9807Z" fill="#F5F5F5"/>
<path d="M38.6226 57.3683V45.6284H40.9576L43.7323 53.9408C43.9882 54.7149 44.1748 55.2942 44.2921 55.6786C44.4253 55.2515 44.6332 54.6242 44.9158 53.7967L47.7225 45.6284H49.8096V57.3683H48.3143V47.5423L44.9078 57.3683H43.5084L40.1179 47.3742V57.3683H38.6226Z" fill="#F5F5F5"/>
<path d="M60.005 45.6284H61.5563V52.4112C61.5563 53.5911 61.423 54.5281 61.1565 55.2221C60.8899 55.9161 60.4075 56.482 59.7091 56.9198C59.0161 57.3523 58.1045 57.5685 56.9744 57.5685C55.8762 57.5685 54.9779 57.3789 54.2796 56.9999C53.5812 56.6208 53.0828 56.0736 52.7842 55.3582C52.4857 54.6375 52.3364 53.6552 52.3364 52.4112V45.6284H53.8877V52.4032C53.8877 53.4229 53.981 54.1757 54.1676 54.6615C54.3595 55.142 54.6847 55.5131 55.1432 55.7747C55.607 56.0363 56.1721 56.1671 56.8384 56.1671C57.9792 56.1671 58.7922 55.9081 59.2773 55.3903C59.7624 54.8724 60.005 53.8767 60.005 52.4032V45.6284Z" fill="#F5F5F5"/>
<path d="M64.1311 57.3683V45.6284H65.7224L71.8797 54.8457V45.6284H73.367V57.3683H71.7757L65.6185 48.1429V57.3683H64.1311Z" fill="#F5F5F5"/>
<path d="M76.2457 57.3683V45.6284H77.797V57.3683H76.2457Z" fill="#F5F5F5"/>
<path d="M88.904 53.2521L90.4553 53.6445C90.1301 54.9205 89.5437 55.8948 88.6961 56.5675C87.8538 57.2348 86.8223 57.5685 85.6015 57.5685C84.3381 57.5685 83.3092 57.3122 82.5149 56.7997C81.7259 56.2818 81.1235 55.5344 80.7077 54.5574C80.2972 53.5804 80.092 52.5314 80.092 51.4102C80.092 50.1877 80.3239 49.1226 80.7877 48.215C81.2568 47.3021 81.9205 46.6107 82.7788 46.1409C83.6424 45.6658 84.5913 45.4282 85.6255 45.4282C86.7983 45.4282 87.7845 45.7272 88.5842 46.3251C89.3838 46.923 89.9409 47.7639 90.2554 48.8476L88.7281 49.208C88.4562 48.3538 88.0617 47.7319 87.5446 47.3421C87.0275 46.9524 86.3771 46.7575 85.5935 46.7575C84.6926 46.7575 83.9382 46.9737 83.3305 47.4062C82.7281 47.8386 82.3043 48.4205 82.0591 49.152C81.8139 49.878 81.6913 50.6281 81.6913 51.4022C81.6913 52.4006 81.8352 53.2735 82.1231 54.0209C82.4163 54.763 82.8694 55.3182 83.4825 55.6866C84.0955 56.0549 84.7592 56.2391 85.4736 56.2391C86.3425 56.2391 87.0782 55.9882 87.6806 55.4864C88.283 54.9845 88.6908 54.2398 88.904 53.2521Z" fill="#F5F5F5"/>
<path d="M91.087 57.3683L95.589 45.6284H97.2603L102.058 57.3683H100.291L98.9235 53.8127H94.0217L92.7343 57.3683H91.087ZM94.4695 52.5474H98.4437L97.2203 49.2961C96.8471 48.3084 96.5699 47.4969 96.3886 46.8616C96.2394 47.6144 96.0288 48.3618 95.7569 49.1039L94.4695 52.5474Z" fill="#F5F5F5"/>
<path d="M105.065 57.3683V47.0138H101.202V45.6284H110.494V47.0138H106.616V57.3683H105.065Z" fill="#F5F5F5"/>
<path d="M112.357 57.3683V45.6284H113.909V57.3683H112.357Z" fill="#F5F5F5"/>
<path d="M116.18 51.6505C116.18 49.7018 116.702 48.1776 117.747 47.0779C118.792 45.9727 120.141 45.4202 121.793 45.4202C122.875 45.4202 123.851 45.6791 124.72 46.197C125.589 46.7148 126.25 47.4382 126.703 48.3672C127.161 49.2908 127.391 50.3398 127.391 51.5143C127.391 52.7049 127.151 53.77 126.671 54.7096C126.191 55.6492 125.512 56.3619 124.632 56.8477C123.752 57.3282 122.803 57.5685 121.785 57.5685C120.682 57.5685 119.696 57.3015 118.827 56.7677C117.958 56.2338 117.299 55.505 116.851 54.5814C116.404 53.6578 116.18 52.6809 116.18 51.6505ZM117.779 51.6745C117.779 53.0893 118.158 54.2051 118.915 55.0219C119.677 55.8334 120.631 56.2391 121.777 56.2391C122.945 56.2391 123.904 55.828 124.656 55.0059C125.413 54.1837 125.791 53.0172 125.791 51.5063C125.791 50.5507 125.629 49.7179 125.304 49.0078C124.984 48.2924 124.512 47.7399 123.888 47.3501C123.27 46.9551 122.574 46.7575 121.801 46.7575C120.703 46.7575 119.757 47.1366 118.963 47.8947C118.174 48.6474 117.779 49.9074 117.779 51.6745Z" fill="#F5F5F5"/>
<path d="M129.382 57.3683V45.6284H130.973L137.13 54.8457V45.6284H138.618V57.3683H137.026L130.869 48.1429V57.3683H129.382Z" fill="#F5F5F5"/>
</svg>
