<svg width="202" height="77" viewBox="0 0 202 77" fill="none" xmlns="http://www.w3.org/2000/svg">
<path d="M0.94043 74.6021L72.7819 33.17V1.70813L0.94043 74.6021Z" fill="#F5F5F5" stroke="#F5F5F5"/>
<path d="M72.8373 76.0422L59.2112 48.1996L72.8373 40.3707V76.0422Z" fill="#F5F5F5" stroke="#F5F5F5"/>
<path d="M91.351 8.02272C91.2965 7.34086 91.0408 6.809 90.5839 6.42714C90.1338 6.04527 89.4485 5.85429 88.5279 5.85429C87.9416 5.85429 87.4608 5.92585 87.0858 6.06909C86.7176 6.20546 86.4448 6.39302 86.2676 6.63164C86.0902 6.87037 85.9981 7.14311 85.9914 7.44998C85.9778 7.70223 86.0221 7.93066 86.1243 8.13527C86.2334 8.33301 86.4039 8.5137 86.6357 8.67732C86.8676 8.83419 87.1642 8.97732 87.5256 9.10693C87.887 9.23643 88.3166 9.35242 88.8144 9.45467L90.5327 9.82291C91.692 10.0684 92.6841 10.3923 93.5092 10.7946C94.3344 11.1969 95.0091 11.6709 95.5342 12.2163C96.0593 12.7551 96.4448 13.3619 96.6907 14.037C96.9422 14.7121 97.0718 15.4485 97.0785 16.2463C97.0718 17.6238 96.7273 18.7898 96.046 19.7445C95.3636 20.6991 94.3887 21.4252 93.1205 21.9231C91.859 22.4208 90.3418 22.6697 88.5689 22.6697C86.7482 22.6697 85.1594 22.4004 83.8025 21.8617C82.4524 21.323 81.4022 20.4944 80.6522 19.3762C79.9088 18.2511 79.5338 16.8123 79.527 15.0599H84.9276C84.9617 15.7008 85.122 16.2395 85.4083 16.6759C85.6947 17.1123 86.0971 17.4431 86.6153 17.6681C87.1403 17.8931 87.7642 18.0056 88.4871 18.0056C89.0939 18.0056 89.602 17.9306 90.0111 17.7805C90.4202 17.6305 90.7305 17.4226 90.9419 17.1566C91.1532 16.8907 91.2623 16.5873 91.2692 16.2463C91.2623 15.9258 91.1567 15.6462 90.9521 15.4076C90.7543 15.1621 90.4271 14.9439 89.9702 14.753C89.5133 14.5553 88.8962 14.3711 88.1188 14.2006L86.0323 13.7507C84.1776 13.3483 82.7148 12.6766 81.6443 11.7357C80.5805 10.7878 80.0521 9.49555 80.0589 7.8591C80.0521 6.52939 80.4067 5.36674 81.1227 4.37115C81.8454 3.3688 82.8444 2.58802 84.1195 2.02891C85.4015 1.4698 86.871 1.19019 88.5279 1.19019C90.2191 1.19019 91.6818 1.47312 92.916 2.0391C94.1502 2.60508 95.101 3.40293 95.7701 4.43253C96.4448 5.45537 96.786 6.65213 96.7927 8.02272H91.351ZM99.53 22.4243V1.47655H108.572C110.126 1.47655 111.487 1.78342 112.653 2.39714C113.82 3.01087 114.726 3.87341 115.374 4.98488C116.022 6.09635 116.346 7.39537 116.346 8.88194C116.346 10.382 116.012 11.681 115.343 12.7789C114.682 13.8767 113.751 14.7223 112.551 15.3155C111.358 15.9088 109.963 16.2055 108.367 16.2055H102.966V11.7867H107.222C107.891 11.7867 108.46 11.6709 108.93 11.439C109.407 11.2004 109.772 10.8628 110.024 10.4263C110.284 9.98997 110.413 9.47517 110.413 8.88194C110.413 8.28184 110.284 7.77047 110.024 7.34762C109.772 6.91801 109.407 6.59076 108.93 6.36577C108.46 6.1339 107.891 6.01791 107.222 6.01791H105.218V22.4243H99.53ZM121.546 22.4243H115.408L122.323 1.47655H130.097L137.011 22.4243H130.874L126.291 7.24537H126.129L121.546 22.4243ZM120.4 14.1598H131.938V18.4148H120.4V14.1598ZM157.888 9.33193H152.12C152.079 8.85457 151.97 8.42164 151.793 8.03291C151.623 7.64429 151.383 7.31017 151.076 7.03056C150.776 6.74419 150.412 6.52596 149.982 6.37596C149.553 6.21909 149.065 6.14066 148.52 6.14066C147.565 6.14066 146.757 6.37252 146.096 6.83625C145.441 7.29987 144.944 7.96478 144.602 8.83076C144.268 9.69673 144.101 10.7366 144.101 11.9505C144.101 13.2324 144.271 14.3063 144.612 15.1723C144.96 16.0315 145.461 16.6794 146.116 17.1157C146.77 17.5453 147.558 17.7602 148.479 17.7602C149.004 17.7602 149.475 17.6953 149.89 17.5657C150.307 17.4294 150.668 17.2351 150.975 16.9828C151.281 16.7304 151.531 16.427 151.721 16.0724C151.918 15.711 152.051 15.3054 152.12 14.8553L157.888 14.8961C157.821 15.7826 157.572 16.6861 157.142 17.6067C156.713 18.5204 156.103 19.3659 155.312 20.1434C154.527 20.9139 153.556 21.5344 152.396 22.0048C151.237 22.4754 149.89 22.7106 148.356 22.7106C146.434 22.7106 144.708 22.2981 143.18 21.473C141.66 20.6479 140.456 19.4342 139.57 17.8317C138.69 16.2293 138.25 14.2689 138.25 11.9505C138.25 9.6183 138.7 7.65448 139.601 6.0589C140.5 4.45646 141.714 3.24606 143.242 2.42783C144.77 1.60273 146.474 1.19019 148.356 1.19019C149.678 1.19019 150.896 1.37087 152.007 1.73224C153.119 2.09371 154.094 2.62214 154.933 3.31763C155.771 4.00635 156.447 4.85538 156.958 5.86448C157.47 6.8737 157.78 8.02959 157.888 9.33193ZM160.757 22.4243V1.47655H175.854V6.0589H166.444V9.65929H175.077V14.2415H166.444V17.8419H175.813V22.4243H160.757ZM80.0589 74.2698V53.3221H85.7459V69.6874H94.215V74.2698H80.0589ZM102.243 74.2698H96.1058L103.021 53.3221H110.794L117.708 74.2698H111.572L106.989 59.0909H106.826L102.243 74.2698ZM101.098 66.0053H112.635V70.2603H101.098V66.0053ZM120.015 74.2698V53.3221H129.096C130.693 53.3221 132.032 53.5369 133.117 53.9665C134.208 54.3961 135.03 55.003 135.582 55.7872C136.141 56.5713 136.42 57.4953 136.42 58.5591C136.42 59.3295 136.25 60.0319 135.909 60.6661C135.575 61.3002 135.104 61.8321 134.497 62.2617C133.891 62.6844 133.182 62.9777 132.37 63.1413V63.3459C133.271 63.38 134.088 63.6085 134.825 64.0312C135.562 64.4472 136.148 65.0233 136.584 65.7598C137.021 66.4894 137.239 67.3486 137.239 68.3374C137.239 69.4829 136.939 70.5023 136.338 71.3956C135.745 72.2889 134.9 72.9913 133.802 73.5026C132.705 74.0141 131.395 74.2698 129.874 74.2698H120.015ZM125.701 69.7284H128.361C129.315 69.7284 130.031 69.5511 130.509 69.1966C130.986 68.8351 131.225 68.3032 131.225 67.6009C131.225 67.1099 131.112 66.694 130.887 66.3531C130.662 66.0121 130.342 65.753 129.925 65.5757C129.516 65.3985 129.022 65.3097 128.443 65.3097H125.701V69.7284ZM125.701 61.7912H128.033C128.531 61.7912 128.971 61.7128 129.352 61.5559C129.735 61.3991 130.031 61.174 130.243 60.8809C130.461 60.5808 130.57 60.216 130.57 59.7864C130.57 59.1387 130.338 58.6442 129.874 58.3034C129.411 57.9555 128.824 57.7817 128.115 57.7817H125.701V61.7912Z" fill="#F5F5F5"/>
<path d="M80.0587 48.3469V27.3992H89.1006C90.6553 27.3992 92.0156 27.6822 93.1816 28.2481C94.3475 28.8141 95.2548 29.629 95.9028 30.6927C96.5498 31.7564 96.8744 33.0316 96.8744 34.5181C96.8744 36.0183 96.5398 37.2832 95.8718 38.3129C95.2105 39.3425 94.2799 40.1198 93.0794 40.6449C91.886 41.1699 90.4916 41.4325 88.8959 41.4325H83.4954V37.0138H87.7504C88.4187 37.0138 88.988 36.932 89.4585 36.7684C89.9358 36.5979 90.3007 36.3286 90.553 35.9603C90.8121 35.5921 90.9416 35.1114 90.9416 34.5181C90.9416 33.9181 90.8121 33.4305 90.553 33.0554C90.3007 32.6736 89.9358 32.3941 89.4585 32.2167C88.988 32.0326 88.4187 31.9405 87.7504 31.9405H85.7457V48.3469H80.0587ZM92.3327 38.7322L97.5701 48.3469H91.3917L86.2775 38.7322H92.3327ZM119.879 37.8731C119.879 40.2051 119.426 42.1724 118.519 43.7748C117.612 45.3704 116.388 46.5808 114.848 47.4059C113.305 48.2241 111.587 48.6332 109.692 48.6332C107.783 48.6332 106.057 48.2207 104.516 47.3956C102.982 46.5637 101.761 45.3499 100.855 43.7543C99.9541 42.1519 99.5043 40.1915 99.5043 37.8731C99.5043 35.5409 99.9541 33.5771 100.855 31.9815C101.761 30.3791 102.982 29.1687 104.516 28.3504C106.057 27.5253 107.783 27.1128 109.692 27.1128C111.587 27.1128 113.305 27.5253 114.848 28.3504C116.388 29.1687 117.612 30.3791 118.519 31.9815C119.426 33.5771 119.879 35.5409 119.879 37.8731ZM114.029 37.8731C114.029 36.6184 113.862 35.5614 113.527 34.7022C113.2 33.8362 112.713 33.1816 112.065 32.7384C111.424 32.2884 110.633 32.0633 109.692 32.0633C108.751 32.0633 107.957 32.2884 107.309 32.7384C106.667 33.1816 106.18 33.8362 105.847 34.7022C105.519 35.5614 105.355 36.6184 105.355 37.8731C105.355 39.1277 105.519 40.1881 105.847 41.054C106.18 41.9133 106.667 42.5679 107.309 43.0179C107.957 43.4611 108.751 43.6828 109.692 43.6828C110.633 43.6828 111.424 43.4611 112.065 43.0179C112.713 42.5679 113.2 41.9133 113.527 41.054C113.862 40.1881 114.029 39.1277 114.029 37.8731ZM142.356 35.2545H136.586C136.545 34.7772 136.437 34.3442 136.259 33.9555C136.089 33.5669 135.85 33.2328 135.544 32.9532C135.243 32.6668 134.878 32.4486 134.449 32.2986C134.019 32.1417 133.532 32.0633 132.986 32.0633C132.032 32.0633 131.223 32.2951 130.562 32.7589C129.907 33.2225 129.41 33.8874 129.068 34.7534C128.734 35.6193 128.568 36.6592 128.568 37.8731C128.568 39.155 128.738 40.2289 129.078 41.0949C129.426 41.9541 129.928 42.602 130.583 43.0383C131.236 43.468 132.024 43.6828 132.945 43.6828C133.47 43.6828 133.941 43.618 134.357 43.4883C134.773 43.352 135.134 43.1577 135.441 42.9054C135.747 42.653 135.997 42.3496 136.187 41.995C136.386 41.6336 136.518 41.228 136.586 40.7779L142.356 40.8187C142.287 41.7052 142.038 42.6087 141.609 43.5293C141.179 44.4431 140.569 45.2885 139.778 46.066C138.993 46.8365 138.022 47.457 136.863 47.9274C135.703 48.398 134.357 48.6332 132.823 48.6332C130.9 48.6332 129.175 48.2207 127.647 47.3956C126.126 46.5705 124.923 45.3568 124.036 43.7543C123.156 42.1519 122.716 40.1915 122.716 37.8731C122.716 35.5409 123.167 33.5771 124.067 31.9815C124.967 30.3791 126.18 29.1687 127.708 28.3504C129.236 27.5253 130.941 27.1128 132.823 27.1128C134.146 27.1128 135.362 27.2935 136.474 27.6548C137.585 28.0163 138.56 28.5448 139.399 29.2402C140.237 29.929 140.913 30.778 141.425 31.7871C141.936 32.7963 142.246 33.9522 142.356 35.2545ZM145.224 48.3469V27.3992H150.91V35.8683H151.197L157.497 27.3992H164.125L157.047 36.7275L164.289 48.3469H157.497L152.792 40.4915L150.91 42.9463V48.3469H145.224ZM166.101 48.3469V27.3992H181.199V31.9815H171.788V35.5819H180.421V40.1641H171.788V43.7645H181.158V48.3469H166.101ZM183.733 31.9815V27.3992H201.94V31.9815H195.64V48.3469H190.035V31.9815H183.733Z" fill="#F5F5F5"/>
</svg>
